<svg width="215" height="76" viewBox="0 0 215 76" fill="none" xmlns="http://www.w3.org/2000/svg">
<path d="M125.012 17C124.884 17.24 124.796 17.44 124.748 17.6C124.7 17.744 124.676 17.912 124.676 18.104C124.676 18.488 124.74 18.896 124.868 19.328C125.012 19.744 125.164 20.144 125.324 20.528C125.228 20.24 124.748 19.84 123.884 19.328C123.02 18.8 122.364 18.512 121.916 18.464C121.468 18.416 121.196 18.392 121.1 18.392C121.02 18.392 120.964 18.392 120.932 18.392C120.068 18.392 119.5 18.656 119.228 19.184C118.956 19.696 118.82 20.344 118.82 21.128V30.608C118.82 31.216 118.86 31.752 118.94 32.216C119.02 32.664 119.116 33.08 119.228 33.464C119.356 33.848 119.476 34.176 119.588 34.448C119.7 34.72 119.772 34.896 119.804 34.976H115.868C115.948 34.768 116.036 34.552 116.132 34.328C116.228 34.088 116.332 33.792 116.444 33.44C116.556 33.072 116.652 32.664 116.732 32.216C116.812 31.752 116.852 31.216 116.852 30.608V21.128C116.852 20.328 116.724 19.672 116.468 19.16C116.212 18.648 115.636 18.392 114.74 18.392C114.548 18.392 114.228 18.416 113.78 18.464C113.348 18.512 112.692 18.8 111.812 19.328C110.948 19.856 110.468 20.256 110.372 20.528C110.516 20.16 110.66 19.752 110.804 19.304C110.948 18.856 111.02 18.456 111.02 18.104C111.02 17.912 110.996 17.744 110.948 17.6C110.9 17.44 110.812 17.24 110.684 17H125.012ZM133.457 21.56C133.873 21.976 134.217 22.568 134.489 23.336C134.761 24.088 134.897 24.768 134.897 25.376C134.897 25.856 134.705 26.176 134.321 26.336C133.937 26.496 133.185 27.064 132.065 28.04C130.945 29.016 130.009 29.504 129.257 29.504C128.937 29.504 128.625 29.456 128.321 29.36C128.033 29.264 127.697 29.08 127.313 28.808L126.929 27.656C127.265 28.04 127.697 28.232 128.225 28.232C128.817 28.232 129.513 27.968 130.313 27.44C131.177 26.752 132.049 26.064 132.929 25.376C133.073 25.312 132.905 24.736 132.425 23.648C131.961 22.56 131.113 22.016 129.881 22.016C128.809 22.016 128.049 22.664 127.601 23.96C127.169 25.256 126.953 26.632 126.953 28.088C126.953 29.656 127.201 30.992 127.697 32.096C128.193 33.2 129.025 33.752 130.193 33.752C131.281 33.752 132.033 33.48 132.449 32.936C132.865 32.376 133.177 31.808 133.385 31.232C133.497 31.152 133.577 31.112 133.625 31.112C133.737 31.112 133.793 31.288 133.793 31.64C133.793 31.848 133.785 32.08 133.769 32.336C133.753 32.592 133.737 32.848 133.721 33.104C133.721 33.376 133.745 33.608 133.793 33.8L134.177 34.976H130.457C128.873 34.976 127.785 34.816 127.193 34.496C126.617 34.176 126.185 33.632 125.897 32.864C125.609 32.096 125.377 31.264 125.201 30.368C125.041 29.472 124.961 28.632 124.961 27.848C124.961 26.936 125.049 26.056 125.225 25.208C125.417 24.36 125.665 23.552 125.969 22.784C126.273 22 126.817 21.416 127.601 21.032C128.385 20.648 129.241 20.456 130.169 20.456C130.857 20.456 131.481 20.552 132.041 20.744C132.617 20.92 133.089 21.192 133.457 21.56ZM143.841 31.232C143.953 31.152 144.025 31.112 144.057 31.112C144.185 31.112 144.249 31.312 144.249 31.712C144.249 31.92 144.241 32.152 144.225 32.408C144.209 32.648 144.193 32.888 144.177 33.128C144.177 33.384 144.201 33.608 144.249 33.8L144.633 34.976H141.369C140.345 34.976 139.473 34.832 138.753 34.544C138.049 34.256 137.537 33.696 137.217 32.864C136.913 32.032 136.673 31.176 136.497 30.296C136.337 29.416 136.257 28.56 136.257 27.728C136.257 26.8 136.337 25.944 136.497 25.16C136.673 24.376 136.921 23.584 137.241 22.784C137.561 21.968 138.073 21.4 138.777 21.08C139.497 20.76 140.361 20.6 141.369 20.6H144.633L144.249 21.776C144.201 21.968 144.177 22.2 144.177 22.472C144.177 22.728 144.185 22.984 144.201 23.24C144.217 23.48 144.233 23.72 144.249 23.96C144.249 24.296 144.185 24.464 144.057 24.464C144.025 24.464 143.953 24.424 143.841 24.344C143.729 23.832 143.513 23.32 143.193 22.808C142.889 22.28 142.201 22.016 141.129 22.016C139.993 22.016 139.233 22.632 138.849 23.864C138.465 25.096 138.273 26.496 138.273 28.064C138.273 30.096 138.529 31.52 139.041 32.336C139.569 33.152 140.265 33.56 141.129 33.56C142.217 33.56 142.913 33.304 143.217 32.792C143.521 32.28 143.729 31.76 143.841 31.232ZM156.014 26.552V31.472C156.014 31.984 156.038 32.4 156.086 32.72C156.15 33.04 156.238 33.4 156.35 33.8C156.478 34.2 156.574 34.472 156.638 34.616C156.702 34.744 156.758 34.864 156.806 34.976H153.422C153.518 34.768 153.59 34.592 153.638 34.448C153.702 34.304 153.774 34.088 153.854 33.8C153.95 33.496 154.03 33.144 154.094 32.744C154.174 32.328 154.214 31.904 154.214 31.472V26.624C154.214 25.76 154.134 25.032 153.974 24.44C153.814 23.848 153.542 23.392 153.158 23.072C152.79 22.736 152.438 22.504 152.102 22.376C151.766 22.232 151.462 22.16 151.19 22.16C150.518 22.16 149.95 22.448 149.486 23.024C149.038 23.6 148.814 24.216 148.814 24.872V31.472C148.814 31.984 148.838 32.4 148.886 32.72C148.95 33.04 149.038 33.4 149.15 33.8C149.278 34.2 149.374 34.472 149.438 34.616C149.502 34.744 149.558 34.864 149.606 34.976H146.222C146.318 34.768 146.39 34.592 146.438 34.448C146.502 34.304 146.574 34.088 146.654 33.8C146.75 33.496 146.83 33.144 146.894 32.744C146.974 32.328 147.014 31.904 147.014 31.472V20.504C147.014 19.992 146.982 19.576 146.918 19.256C146.87 18.936 146.782 18.576 146.654 18.176C146.542 17.776 146.454 17.512 146.39 17.384C146.326 17.24 146.27 17.112 146.222 17H149.606C149.526 17.208 149.454 17.384 149.39 17.528C149.326 17.672 149.246 17.896 149.15 18.2C149.07 18.488 148.99 18.84 148.91 19.256C148.846 19.656 148.814 20.072 148.814 20.504V21.68C149.118 21.424 149.542 21.176 150.086 20.936C150.63 20.696 151.19 20.576 151.766 20.576C152.006 20.576 152.198 20.584 152.342 20.6C152.486 20.616 152.878 20.72 153.518 20.912C154.158 21.088 154.734 21.704 155.246 22.76C155.758 23.8 156.014 25.064 156.014 26.552ZM161.062 30.608C161.062 31.216 161.102 31.752 161.182 32.216C161.262 32.664 161.358 33.08 161.47 33.464C161.598 33.848 161.718 34.176 161.83 34.448C161.942 34.72 162.014 34.896 162.046 34.976H158.11C158.19 34.768 158.278 34.552 158.374 34.328C158.47 34.088 158.574 33.792 158.686 33.44C158.798 33.072 158.894 32.664 158.974 32.216C159.054 31.752 159.094 31.216 159.094 30.608V21.368C159.094 20.76 159.054 20.232 158.974 19.784C158.894 19.32 158.79 18.896 158.662 18.512C158.55 18.128 158.438 17.8 158.326 17.528C158.214 17.256 158.142 17.08 158.11 17H169.534C169.406 17.24 169.318 17.44 169.27 17.6C169.222 17.744 169.198 17.912 169.198 18.104C169.198 18.488 169.262 18.896 169.39 19.328C169.534 19.744 169.686 20.144 169.846 20.528C169.67 20.24 168.966 19.816 167.734 19.256C166.502 18.696 165.382 18.416 164.374 18.416C162.934 18.416 162.022 18.664 161.638 19.16C161.254 19.64 161.062 20.296 161.062 21.128V23.72C161.062 23.976 161.158 24.16 161.35 24.272C161.542 24.368 161.806 24.416 162.142 24.416C162.302 24.416 162.59 24.4 163.006 24.368C163.422 24.336 163.638 24.32 163.654 24.32C164.198 24.32 164.662 24.224 165.046 24.032C165.43 23.84 165.846 23.528 166.294 23.096C166.102 23.8 166.006 24.44 166.006 25.016C166.006 25.736 166.102 26.44 166.294 27.128C165.926 26.936 165.526 26.744 165.094 26.552C164.662 26.36 164.23 26.264 163.798 26.264H162.886C162.31 26.264 161.862 26.328 161.542 26.456C161.222 26.568 161.062 26.824 161.062 27.224V30.608ZM179.201 28.088C179.201 26.104 178.905 24.6 178.313 23.576C177.737 22.536 177.017 22.016 176.153 22.016C175.033 22.016 174.225 22.672 173.729 23.984C173.249 25.28 173.009 26.648 173.009 28.088C173.009 29.656 173.225 30.968 173.657 32.024C174.105 33.064 174.905 33.584 176.057 33.584C177.193 33.584 178.001 33.048 178.481 31.976C178.961 30.888 179.201 29.592 179.201 28.088ZM172.001 32.984C171.649 32.056 171.393 31.176 171.233 30.344C171.089 29.512 171.017 28.664 171.017 27.8C171.017 26.872 171.097 26.016 171.257 25.232C171.417 24.432 171.649 23.624 171.953 22.808C172.273 21.992 172.809 21.384 173.561 20.984C174.313 20.584 175.161 20.384 176.105 20.384C177.017 20.384 177.857 20.584 178.625 20.984C179.393 21.384 179.921 21.96 180.209 22.712C180.497 23.464 180.729 24.288 180.905 25.184C181.097 26.064 181.193 26.936 181.193 27.8C181.193 28.648 181.113 29.496 180.953 30.344C180.809 31.192 180.577 32.024 180.257 32.84C179.953 33.656 179.417 34.256 178.649 34.64C177.897 35.024 177.049 35.216 176.105 35.216C175.161 35.216 174.305 35.024 173.537 34.64C172.785 34.256 172.273 33.704 172.001 32.984ZM189.826 31.232C189.938 31.152 190.01 31.112 190.042 31.112C190.17 31.112 190.234 31.312 190.234 31.712C190.234 31.92 190.226 32.152 190.21 32.408C190.194 32.648 190.178 32.888 190.162 33.128C190.162 33.384 190.186 33.608 190.234 33.8L190.618 34.976H187.354C186.33 34.976 185.458 34.832 184.738 34.544C184.034 34.256 183.522 33.696 183.202 32.864C182.898 32.032 182.658 31.176 182.482 30.296C182.322 29.416 182.242 28.56 182.242 27.728C182.242 26.8 182.322 25.944 182.482 25.16C182.658 24.376 182.906 23.584 183.226 22.784C183.546 21.968 184.058 21.4 184.762 21.08C185.482 20.76 186.346 20.6 187.354 20.6H190.618L190.234 21.776C190.186 21.968 190.162 22.2 190.162 22.472C190.162 22.728 190.17 22.984 190.186 23.24C190.202 23.48 190.218 23.72 190.234 23.96C190.234 24.296 190.17 24.464 190.042 24.464C190.01 24.464 189.938 24.424 189.826 24.344C189.714 23.832 189.498 23.32 189.178 22.808C188.874 22.28 188.186 22.016 187.114 22.016C185.978 22.016 185.218 22.632 184.834 23.864C184.45 25.096 184.258 26.496 184.258 28.064C184.258 30.096 184.514 31.52 185.026 32.336C185.554 33.152 186.25 33.56 187.114 33.56C188.202 33.56 188.898 33.304 189.202 32.792C189.506 32.28 189.714 31.76 189.826 31.232ZM195.519 33.032C195.887 33.224 196.359 33.32 196.935 33.32C197.623 33.32 198.231 33.2 198.759 32.96C199.287 32.704 199.551 32.416 199.551 32.096V28.592C199.551 28.048 199.391 27.576 199.071 27.176C198.767 26.76 198.351 26.552 197.823 26.552C197.487 26.552 197.127 26.648 196.743 26.84C196.375 27.032 196.015 27.304 195.663 27.656C195.311 28.008 194.991 28.504 194.703 29.144C194.431 29.768 194.295 30.376 194.295 30.968C194.295 31.432 194.391 31.84 194.583 32.192C194.775 32.528 195.087 32.808 195.519 33.032ZM197.391 22.064C196.303 22.064 195.559 22.312 195.159 22.808C194.775 23.304 194.487 23.816 194.295 24.344C194.215 24.408 194.143 24.44 194.079 24.44C193.951 24.44 193.887 24.24 193.887 23.84C193.887 23.632 193.895 23.408 193.911 23.168C193.927 22.928 193.943 22.68 193.959 22.424C193.959 22.184 193.935 21.968 193.887 21.776L193.503 20.6H196.767C197.759 20.6 198.599 20.664 199.287 20.792C199.991 20.92 200.479 21.168 200.751 21.536C201.039 21.888 201.223 22.256 201.303 22.64C201.399 23.008 201.447 23.464 201.447 24.008C201.447 24.248 201.431 24.632 201.399 25.16C201.367 25.688 201.351 26.096 201.351 26.384V31.472C201.351 31.984 201.375 32.4 201.423 32.72C201.487 33.04 201.575 33.4 201.687 33.8C201.815 34.2 201.911 34.472 201.975 34.616C202.039 34.744 202.095 34.864 202.143 34.976H197.439C196.415 34.976 195.519 34.824 194.751 34.52C193.999 34.216 193.399 33.768 192.951 33.176C192.519 32.584 192.303 31.904 192.303 31.136C192.303 30.256 192.551 29.336 193.047 28.376C193.543 27.416 194.135 26.656 194.823 26.096C195.527 25.536 196.079 25.176 196.479 25.016C196.879 24.84 197.255 24.752 197.607 24.752C197.959 24.752 198.295 24.832 198.615 24.992C198.951 25.136 199.263 25.272 199.551 25.4V24.752C199.551 24.032 199.351 23.408 198.951 22.88C198.567 22.336 198.047 22.064 197.391 22.064ZM203.48 34.976C203.576 34.768 203.648 34.592 203.696 34.448C203.76 34.304 203.832 34.088 203.912 33.8C204.008 33.496 204.088 33.144 204.152 32.744C204.232 32.328 204.272 31.904 204.272 31.472V20.504C204.272 19.992 204.24 19.576 204.176 19.256C204.128 18.936 204.04 18.576 203.912 18.176C203.8 17.776 203.712 17.512 203.648 17.384C203.584 17.24 203.528 17.112 203.48 17H206.864C206.784 17.208 206.712 17.384 206.648 17.528C206.584 17.672 206.504 17.896 206.408 18.2C206.328 18.488 206.248 18.84 206.168 19.256C206.104 19.656 206.072 20.072 206.072 20.504V31.472C206.072 31.984 206.096 32.4 206.144 32.72C206.208 33.04 206.296 33.4 206.408 33.8C206.536 34.2 206.632 34.472 206.696 34.616C206.76 34.744 206.816 34.864 206.864 34.976H203.48ZM112.611 51.096C112.419 51.8 112.323 52.44 112.323 53.016C112.323 53.736 112.419 54.44 112.611 55.128C112.243 54.936 111.843 54.744 111.411 54.552C110.979 54.36 110.547 54.264 110.115 54.264H109.203C108.627 54.264 108.179 54.328 107.859 54.456C107.539 54.568 107.379 54.824 107.379 55.224V58.872C107.379 59.656 107.603 60.304 108.051 60.816C108.499 61.328 109.443 61.584 110.883 61.584C111.923 61.584 113.091 61.304 114.387 60.744C115.699 60.184 116.451 59.76 116.643 59.472C116.499 59.824 116.355 60.224 116.211 60.672C116.067 61.104 115.995 61.504 115.995 61.872C115.995 62.08 116.011 62.24 116.043 62.352C116.091 62.464 116.187 62.672 116.331 62.976H104.427C104.507 62.768 104.595 62.552 104.691 62.328C104.787 62.088 104.891 61.792 105.003 61.44C105.115 61.072 105.211 60.664 105.291 60.216C105.371 59.752 105.411 59.216 105.411 58.608V49.368C105.411 48.76 105.371 48.232 105.291 47.784C105.211 47.32 105.107 46.896 104.979 46.512C104.867 46.128 104.755 45.8 104.643 45.528C104.531 45.256 104.459 45.08 104.427 45H115.755C115.627 45.24 115.539 45.44 115.491 45.6C115.443 45.744 115.419 45.912 115.419 46.104C115.419 46.488 115.483 46.896 115.611 47.328C115.755 47.744 115.907 48.144 116.067 48.528C115.891 48.24 115.195 47.816 113.979 47.256C112.779 46.696 111.683 46.416 110.691 46.416C109.251 46.416 108.339 46.664 107.955 47.16C107.571 47.64 107.379 48.296 107.379 49.128V51.72C107.379 51.976 107.475 52.16 107.667 52.272C107.859 52.368 108.123 52.416 108.459 52.416C108.619 52.416 108.907 52.4 109.323 52.368C109.739 52.336 109.955 52.32 109.971 52.32C110.515 52.32 110.979 52.224 111.363 52.032C111.747 51.84 112.163 51.528 112.611 51.096ZM127.878 54.552V59.472C127.878 59.984 127.902 60.4 127.95 60.72C128.014 61.04 128.102 61.4 128.214 61.8C128.342 62.2 128.438 62.472 128.502 62.616C128.566 62.744 128.622 62.864 128.67 62.976H125.286C125.382 62.768 125.454 62.592 125.502 62.448C125.566 62.304 125.638 62.088 125.718 61.8C125.814 61.496 125.894 61.144 125.958 60.744C126.038 60.328 126.078 59.904 126.078 59.472V54.624C126.078 53.76 125.998 53.032 125.838 52.44C125.678 51.848 125.406 51.392 125.022 51.072C124.654 50.736 124.302 50.504 123.966 50.376C123.63 50.232 123.326 50.16 123.054 50.16C122.382 50.16 121.814 50.448 121.35 51.024C120.902 51.6 120.678 52.216 120.678 52.872V59.472C120.678 59.984 120.702 60.4 120.75 60.72C120.814 61.04 120.902 61.4 121.014 61.8C121.142 62.2 121.238 62.472 121.302 62.616C121.366 62.744 121.422 62.864 121.47 62.976H118.086C118.182 62.768 118.254 62.592 118.302 62.448C118.366 62.304 118.438 62.088 118.518 61.8C118.614 61.496 118.694 61.144 118.758 60.744C118.838 60.328 118.878 59.904 118.878 59.472V52.104C118.878 51.592 118.846 51.176 118.782 50.856C118.734 50.536 118.646 50.176 118.518 49.776C118.406 49.376 118.318 49.112 118.254 48.984C118.19 48.84 118.134 48.712 118.086 48.6L120.678 48.504V49.68C120.982 49.424 121.406 49.176 121.95 48.936C122.494 48.696 123.054 48.576 123.63 48.576C123.87 48.576 124.062 48.584 124.206 48.6C124.35 48.616 124.742 48.72 125.382 48.912C126.022 49.088 126.598 49.704 127.11 50.76C127.622 51.8 127.878 53.064 127.878 54.552ZM130.378 50.568C130.122 50.584 129.89 50.68 129.682 50.856C129.49 51.032 129.346 51.224 129.25 51.432C129.362 51.128 129.474 50.8 129.586 50.448C129.698 50.08 129.754 49.76 129.754 49.488C129.754 49.328 129.738 49.2 129.706 49.104C129.674 49.008 129.602 48.84 129.49 48.6H130.954C131.29 47.784 131.626 46.96 131.962 46.128C132.122 45.84 132.282 45.552 132.442 45.264C132.49 46.048 132.53 46.8 132.562 47.52C132.594 48.24 132.658 48.6 132.754 48.6H135.562C135.514 48.712 135.458 48.84 135.394 48.984C135.33 49.128 135.298 49.296 135.298 49.488C135.298 49.872 135.362 50.248 135.49 50.616C135.618 50.984 135.722 51.256 135.802 51.432C135.738 51.24 135.53 51.024 135.178 50.784C134.842 50.544 134.522 50.424 134.218 50.424C133.786 50.424 133.434 50.536 133.162 50.76C132.89 50.984 132.754 51.272 132.754 51.624V59.496C132.754 59.992 132.778 60.352 132.826 60.576C132.89 60.784 133.01 61.016 133.186 61.272C133.378 61.528 133.674 61.768 134.074 61.992C134.474 62.2 134.858 62.304 135.226 62.304C135.546 62.304 135.818 62.224 136.042 62.064C135.77 62.432 135.442 62.712 135.058 62.904C134.69 63.08 134.298 63.168 133.882 63.168C133.146 63.168 132.538 62.992 132.058 62.64C131.578 62.288 131.274 61.84 131.146 61.296C131.018 60.736 130.954 60.136 130.954 59.496V50.52C130.826 50.52 130.634 50.536 130.378 50.568ZM145.727 49.56C146.143 49.976 146.487 50.568 146.759 51.336C147.031 52.088 147.167 52.768 147.167 53.376C147.167 53.856 146.975 54.176 146.591 54.336C146.207 54.496 145.455 55.064 144.335 56.04C143.215 57.016 142.279 57.504 141.527 57.504C141.207 57.504 140.895 57.456 140.591 57.36C140.303 57.264 139.967 57.08 139.583 56.808L139.199 55.656C139.535 56.04 139.967 56.232 140.495 56.232C141.087 56.232 141.783 55.968 142.583 55.44C143.447 54.752 144.319 54.064 145.199 53.376C145.343 53.312 145.175 52.736 144.695 51.648C144.231 50.56 143.383 50.016 142.151 50.016C141.079 50.016 140.319 50.664 139.871 51.96C139.439 53.256 139.223 54.632 139.223 56.088C139.223 57.656 139.471 58.992 139.967 60.096C140.463 61.2 141.295 61.752 142.463 61.752C143.551 61.752 144.303 61.48 144.719 60.936C145.135 60.376 145.447 59.808 145.655 59.232C145.767 59.152 145.847 59.112 145.895 59.112C146.007 59.112 146.063 59.288 146.063 59.64C146.063 59.848 146.055 60.08 146.039 60.336C146.023 60.592 146.007 60.848 145.991 61.104C145.991 61.376 146.015 61.608 146.063 61.8L146.447 62.976H142.727C141.143 62.976 140.055 62.816 139.463 62.496C138.887 62.176 138.455 61.632 138.167 60.864C137.879 60.096 137.647 59.264 137.471 58.368C137.311 57.472 137.231 56.632 137.231 55.848C137.231 54.936 137.319 54.056 137.495 53.208C137.687 52.36 137.935 51.552 138.239 50.784C138.543 50 139.087 49.416 139.871 49.032C140.655 48.648 141.511 48.456 142.439 48.456C143.127 48.456 143.751 48.552 144.311 48.744C144.887 48.92 145.359 49.192 145.727 49.56ZM151.287 52.872V59.472C151.287 59.984 151.311 60.4 151.359 60.72C151.423 61.04 151.511 61.4 151.623 61.8C151.751 62.2 151.847 62.472 151.911 62.616C151.975 62.744 152.031 62.864 152.079 62.976H148.695C148.791 62.768 148.863 62.592 148.911 62.448C148.975 62.304 149.047 62.088 149.127 61.8C149.223 61.496 149.303 61.144 149.367 60.744C149.447 60.328 149.487 59.904 149.487 59.472V52.104C149.487 51.592 149.455 51.176 149.391 50.856C149.343 50.536 149.255 50.176 149.127 49.776C149.015 49.376 148.927 49.112 148.863 48.984C148.799 48.84 148.743 48.712 148.695 48.6L151.287 48.504V49.68C152.039 49.248 152.583 48.96 152.919 48.816C153.271 48.672 153.903 48.6 154.815 48.6H155.679H156.903L156.519 49.776C156.471 49.968 156.447 50.2 156.447 50.472C156.447 50.728 156.455 50.984 156.471 51.24C156.487 51.48 156.503 51.72 156.519 51.96C156.519 52.296 156.455 52.464 156.327 52.464C156.295 52.464 156.223 52.424 156.111 52.344C155.999 51.832 155.783 51.32 155.463 50.808C155.159 50.28 154.471 50.016 153.399 50.016C152.743 50.016 152.223 50.32 151.839 50.928C151.471 51.52 151.287 52.168 151.287 52.872ZM163.488 50.064C163.392 50.048 163.264 50.04 163.104 50.04C162.176 50.04 161.576 50.368 161.304 51.024C161.032 51.664 160.896 52.376 160.896 53.16V58.728C160.896 59.368 161.12 60.008 161.568 60.648C162.032 61.272 162.592 61.584 163.248 61.584C163.552 61.584 163.856 61.512 164.16 61.368C164.48 61.208 164.816 60.944 165.168 60.576C165.536 60.208 165.84 59.656 166.08 58.92C166.336 58.168 166.464 57.336 166.464 56.424C166.464 54.184 166.192 52.592 165.648 51.648C165.12 50.688 164.4 50.16 163.488 50.064ZM160.896 63.096C160.896 63.608 160.92 64.024 160.968 64.344C161.032 64.664 161.12 65.024 161.232 65.424C161.36 65.824 161.456 66.088 161.52 66.216C161.584 66.36 161.64 66.488 161.688 66.6H158.304C158.4 66.392 158.472 66.216 158.52 66.072C158.584 65.928 158.656 65.704 158.736 65.4C158.832 65.112 158.912 64.76 158.976 64.344C159.056 63.944 159.096 63.528 159.096 63.096V52.104C159.096 51.592 159.064 51.176 159 50.856C158.952 50.536 158.864 50.176 158.736 49.776C158.624 49.376 158.536 49.112 158.472 48.984C158.408 48.84 158.352 48.712 158.304 48.6H163.008C164.064 48.6 164.96 48.736 165.696 49.008C166.448 49.28 167.088 50.008 167.616 51.192C168.144 52.36 168.408 53.992 168.408 56.088C168.408 57.88 168.104 59.424 167.496 60.72C166.904 62 166.224 62.704 165.456 62.832C164.688 62.96 164.168 63.024 163.896 63.024C163.272 63.024 162.768 62.936 162.384 62.76C162 62.568 161.504 62.288 160.896 61.92V63.096ZM172.17 52.872V59.472C172.17 59.984 172.194 60.4 172.242 60.72C172.306 61.04 172.394 61.4 172.506 61.8C172.634 62.2 172.73 62.472 172.794 62.616C172.858 62.744 172.914 62.864 172.962 62.976H169.578C169.674 62.768 169.746 62.592 169.794 62.448C169.858 62.304 169.93 62.088 170.01 61.8C170.106 61.496 170.186 61.144 170.25 60.744C170.33 60.328 170.37 59.904 170.37 59.472V52.104C170.37 51.592 170.338 51.176 170.274 50.856C170.226 50.536 170.138 50.176 170.01 49.776C169.898 49.376 169.81 49.112 169.746 48.984C169.682 48.84 169.626 48.712 169.578 48.6L172.17 48.504V49.68C172.922 49.248 173.466 48.96 173.802 48.816C174.154 48.672 174.786 48.6 175.698 48.6H176.562H177.786L177.402 49.776C177.354 49.968 177.33 50.2 177.33 50.472C177.33 50.728 177.338 50.984 177.354 51.24C177.37 51.48 177.386 51.72 177.402 51.96C177.402 52.296 177.338 52.464 177.21 52.464C177.178 52.464 177.106 52.424 176.994 52.344C176.882 51.832 176.666 51.32 176.346 50.808C176.042 50.28 175.354 50.016 174.282 50.016C173.626 50.016 173.106 50.32 172.722 50.928C172.354 51.52 172.17 52.168 172.17 52.872ZM179.187 62.976C179.283 62.768 179.355 62.592 179.403 62.448C179.467 62.304 179.539 62.088 179.619 61.8C179.715 61.496 179.795 61.144 179.859 60.744C179.939 60.328 179.979 59.904 179.979 59.472V52.128C179.979 51.616 179.947 51.2 179.883 50.88C179.835 50.56 179.747 50.2 179.619 49.8C179.507 49.4 179.419 49.136 179.355 49.008C179.291 48.864 179.235 48.736 179.187 48.624H182.571C182.491 48.832 182.419 49.008 182.355 49.152C182.291 49.296 182.211 49.52 182.115 49.824C182.035 50.112 181.955 50.464 181.875 50.88C181.811 51.28 181.779 51.696 181.779 52.128V59.472C181.779 59.984 181.803 60.4 181.851 60.72C181.915 61.04 182.003 61.4 182.115 61.8C182.243 62.2 182.339 62.472 182.403 62.616C182.467 62.744 182.523 62.864 182.571 62.976H179.187ZM182.547 46.08C182.547 46.416 182.379 46.68 182.043 46.872C181.723 47.064 181.331 47.16 180.867 47.16C180.403 47.16 180.003 47.064 179.667 46.872C179.347 46.68 179.187 46.416 179.187 46.08C179.187 45.744 179.347 45.48 179.667 45.288C180.003 45.096 180.403 45 180.867 45C181.331 45 181.723 45.096 182.043 45.288C182.379 45.48 182.547 45.744 182.547 46.08ZM192.811 60.48C192.667 61.392 192.203 62.04 191.419 62.424C190.635 62.792 189.683 62.976 188.563 62.976H184.243C184.307 62.784 184.371 62.584 184.435 62.376C184.515 62.152 184.563 61.992 184.579 61.896C184.611 61.8 184.627 61.68 184.627 61.536C184.627 61.376 184.635 61.248 184.651 61.152C184.651 60.928 184.643 60.704 184.627 60.48C184.611 60.24 184.595 60.008 184.579 59.784C184.579 59.368 184.667 59.16 184.843 59.16C184.891 59.16 184.955 59.184 185.035 59.232C185.099 59.536 185.291 60 185.611 60.624C185.931 61.248 186.987 61.56 188.779 61.56C189.403 61.56 189.931 61.368 190.363 60.984C190.811 60.584 191.035 60.048 191.035 59.376C191.035 59.296 191.027 59.208 191.011 59.112C191.011 59 190.939 58.688 190.795 58.176C190.667 57.664 190.123 57.088 189.163 56.448C188.203 55.792 187.283 55.176 186.403 54.6C185.507 53.896 185.059 53.088 185.059 52.176C185.059 51.76 185.171 51.224 185.395 50.568C185.619 49.896 186.091 49.4 186.811 49.08C187.547 48.76 188.427 48.6 189.451 48.6H192.715L192.331 49.776C192.283 50.016 192.259 50.304 192.259 50.64C192.259 50.848 192.259 51.056 192.259 51.264C192.259 51.456 192.267 51.648 192.283 51.84C192.283 52.272 192.235 52.488 192.139 52.488C192.091 52.488 192.019 52.44 191.923 52.344C191.875 51.8 191.723 51.256 191.467 50.712C191.211 50.152 190.571 49.872 189.547 49.872C188.795 49.872 188.179 49.992 187.699 50.232C187.235 50.456 187.003 51.032 187.003 51.96C187.003 52.84 187.491 53.56 188.467 54.12C189.459 54.68 190.427 55.224 191.371 55.752C192.411 56.568 192.931 57.688 192.931 59.112C192.931 59.368 192.915 59.624 192.883 59.88C192.851 60.12 192.827 60.32 192.811 60.48ZM202.656 49.56C203.072 49.976 203.416 50.568 203.688 51.336C203.96 52.088 204.096 52.768 204.096 53.376C204.096 53.856 203.904 54.176 203.52 54.336C203.136 54.496 202.384 55.064 201.264 56.04C200.144 57.016 199.208 57.504 198.456 57.504C198.136 57.504 197.824 57.456 197.52 57.36C197.232 57.264 196.896 57.08 196.512 56.808L196.128 55.656C196.464 56.04 196.896 56.232 197.424 56.232C198.016 56.232 198.712 55.968 199.512 55.44C200.376 54.752 201.248 54.064 202.128 53.376C202.272 53.312 202.104 52.736 201.624 51.648C201.16 50.56 200.312 50.016 199.08 50.016C198.008 50.016 197.248 50.664 196.8 51.96C196.368 53.256 196.152 54.632 196.152 56.088C196.152 57.656 196.4 58.992 196.896 60.096C197.392 61.2 198.224 61.752 199.392 61.752C200.48 61.752 201.232 61.48 201.648 60.936C202.064 60.376 202.376 59.808 202.584 59.232C202.696 59.152 202.776 59.112 202.824 59.112C202.936 59.112 202.992 59.288 202.992 59.64C202.992 59.848 202.984 60.08 202.968 60.336C202.952 60.592 202.936 60.848 202.92 61.104C202.92 61.376 202.944 61.608 202.992 61.8L203.376 62.976H199.656C198.072 62.976 196.984 62.816 196.392 62.496C195.816 62.176 195.384 61.632 195.096 60.864C194.808 60.096 194.576 59.264 194.4 58.368C194.24 57.472 194.16 56.632 194.16 55.848C194.16 54.936 194.248 54.056 194.424 53.208C194.616 52.36 194.864 51.552 195.168 50.784C195.472 50 196.016 49.416 196.8 49.032C197.584 48.648 198.44 48.456 199.368 48.456C200.056 48.456 200.68 48.552 201.24 48.744C201.816 48.92 202.288 49.192 202.656 49.56ZM213.929 60.48C213.785 61.392 213.321 62.04 212.537 62.424C211.753 62.792 210.801 62.976 209.681 62.976H205.361C205.425 62.784 205.489 62.584 205.553 62.376C205.633 62.152 205.681 61.992 205.697 61.896C205.729 61.8 205.745 61.68 205.745 61.536C205.745 61.376 205.753 61.248 205.769 61.152C205.769 60.928 205.761 60.704 205.745 60.48C205.729 60.24 205.713 60.008 205.697 59.784C205.697 59.368 205.785 59.16 205.961 59.16C206.009 59.16 206.073 59.184 206.153 59.232C206.217 59.536 206.409 60 206.729 60.624C207.049 61.248 208.105 61.56 209.897 61.56C210.521 61.56 211.049 61.368 211.481 60.984C211.929 60.584 212.153 60.048 212.153 59.376C212.153 59.296 212.145 59.208 212.129 59.112C212.129 59 212.057 58.688 211.913 58.176C211.785 57.664 211.241 57.088 210.281 56.448C209.321 55.792 208.401 55.176 207.521 54.6C206.625 53.896 206.177 53.088 206.177 52.176C206.177 51.76 206.289 51.224 206.513 50.568C206.737 49.896 207.209 49.4 207.929 49.08C208.665 48.76 209.545 48.6 210.569 48.6H213.833L213.449 49.776C213.401 50.016 213.377 50.304 213.377 50.64C213.377 50.848 213.377 51.056 213.377 51.264C213.377 51.456 213.385 51.648 213.401 51.84C213.401 52.272 213.353 52.488 213.257 52.488C213.209 52.488 213.137 52.44 213.041 52.344C212.993 51.8 212.841 51.256 212.585 50.712C212.329 50.152 211.689 49.872 210.665 49.872C209.913 49.872 209.297 49.992 208.817 50.232C208.353 50.456 208.121 51.032 208.121 51.96C208.121 52.84 208.609 53.56 209.585 54.12C210.577 54.68 211.545 55.224 212.489 55.752C213.529 56.568 214.049 57.688 214.049 59.112C214.049 59.368 214.033 59.624 214.001 59.88C213.969 60.12 213.945 60.32 213.929 60.48Z" fill="#021ED3"/>
<line x1="84.5" y1="0.000265285" x2="84.4866" y2="76.0005" stroke="#2AF076" stroke-width="3"/>
<path d="M65.9648 33L63.4648 36L60.4648 40H45.9648V33H65.9648Z" fill="#2AF076"/>
<path d="M65.4648 13L73.9648 23H43.9648V63H32.9648V13H65.4648Z" fill="#3224B3"/>
<path opacity="0.7" d="M28.9648 13V63H17.9648L18.3838 23H0V22.9209L4.46484 13H28.9648Z" fill="#2AF076"/>
</svg>
