<svg width="500" height="66" viewBox="0 0 500 66" fill="none" xmlns="http://www.w3.org/2000/svg">
<path d="M108.284 8C108.092 8.36 107.96 8.66 107.888 8.9C107.816 9.116 107.78 9.368 107.78 9.656C107.78 10.232 107.876 10.844 108.068 11.492C108.284 12.116 108.512 12.716 108.752 13.292C108.608 12.86 107.888 12.26 106.592 11.492C105.296 10.7 104.312 10.268 103.64 10.196C102.968 10.124 102.56 10.088 102.416 10.088C102.296 10.088 102.212 10.088 102.164 10.088C100.868 10.088 100.016 10.484 99.608 11.276C99.2 12.044 98.996 13.016 98.996 14.192V28.412C98.996 29.324 99.056 30.128 99.176 30.824C99.296 31.496 99.44 32.12 99.608 32.696C99.8 33.272 99.98 33.764 100.148 34.172C100.316 34.58 100.424 34.844 100.472 34.964H94.568C94.688 34.652 94.82 34.328 94.964 33.992C95.108 33.632 95.264 33.188 95.432 32.66C95.6 32.108 95.744 31.496 95.864 30.824C95.984 30.128 96.044 29.324 96.044 28.412V14.192C96.044 12.992 95.852 12.008 95.468 11.24C95.084 10.472 94.22 10.088 92.876 10.088C92.588 10.088 92.108 10.124 91.436 10.196C90.788 10.268 89.804 10.7 88.484 11.492C87.188 12.284 86.468 12.884 86.324 13.292C86.54 12.74 86.756 12.128 86.972 11.456C87.188 10.784 87.296 10.184 87.296 9.656C87.296 9.368 87.26 9.116 87.188 8.9C87.116 8.66 86.984 8.36 86.792 8H108.284ZM120.951 14.84C121.575 15.464 122.091 16.352 122.499 17.504C122.907 18.632 123.111 19.652 123.111 20.564C123.111 21.284 122.823 21.764 122.247 22.004C121.671 22.244 120.543 23.096 118.863 24.56C117.183 26.024 115.779 26.756 114.651 26.756C114.171 26.756 113.703 26.684 113.247 26.54C112.815 26.396 112.311 26.12 111.735 25.712L111.159 23.984C111.663 24.56 112.311 24.848 113.103 24.848C113.991 24.848 115.035 24.452 116.235 23.66C117.531 22.628 118.839 21.596 120.159 20.564C120.375 20.468 120.123 19.604 119.403 17.972C118.707 16.34 117.435 15.524 115.587 15.524C113.979 15.524 112.839 16.496 112.167 18.44C111.519 20.384 111.195 22.448 111.195 24.632C111.195 26.984 111.567 28.988 112.311 30.644C113.055 32.3 114.303 33.128 116.055 33.128C117.687 33.128 118.815 32.72 119.439 31.904C120.063 31.064 120.531 30.212 120.843 29.348C121.011 29.228 121.131 29.168 121.203 29.168C121.371 29.168 121.455 29.432 121.455 29.96C121.455 30.272 121.443 30.62 121.419 31.004C121.395 31.388 121.371 31.772 121.347 32.156C121.347 32.564 121.383 32.912 121.455 33.2L122.031 34.964H116.451C114.075 34.964 112.443 34.724 111.555 34.244C110.691 33.764 110.043 32.948 109.611 31.796C109.179 30.644 108.831 29.396 108.567 28.052C108.327 26.708 108.207 25.448 108.207 24.272C108.207 22.904 108.339 21.584 108.603 20.312C108.891 19.04 109.263 17.828 109.719 16.676C110.175 15.5 110.991 14.624 112.167 14.048C113.343 13.472 114.627 13.184 116.019 13.184C117.051 13.184 117.987 13.328 118.827 13.616C119.691 13.88 120.399 14.288 120.951 14.84ZM136.528 29.348C136.696 29.228 136.804 29.168 136.852 29.168C137.044 29.168 137.14 29.468 137.14 30.068C137.14 30.38 137.128 30.728 137.104 31.112C137.08 31.472 137.056 31.832 137.032 32.192C137.032 32.576 137.068 32.912 137.14 33.2L137.716 34.964H132.82C131.284 34.964 129.976 34.748 128.896 34.316C127.84 33.884 127.072 33.044 126.592 31.796C126.136 30.548 125.776 29.264 125.512 27.944C125.272 26.624 125.152 25.34 125.152 24.092C125.152 22.7 125.272 21.416 125.512 20.24C125.776 19.064 126.148 17.876 126.628 16.676C127.108 15.452 127.876 14.6 128.932 14.12C130.012 13.64 131.308 13.4 132.82 13.4H137.716L137.14 15.164C137.068 15.452 137.032 15.8 137.032 16.208C137.032 16.592 137.044 16.976 137.068 17.36C137.092 17.72 137.116 18.08 137.14 18.44C137.14 18.944 137.044 19.196 136.852 19.196C136.804 19.196 136.696 19.136 136.528 19.016C136.36 18.248 136.036 17.48 135.556 16.712C135.1 15.92 134.068 15.524 132.46 15.524C130.756 15.524 129.616 16.448 129.04 18.296C128.464 20.144 128.176 22.244 128.176 24.596C128.176 27.644 128.56 29.78 129.328 31.004C130.12 32.228 131.164 32.84 132.46 32.84C134.092 32.84 135.136 32.456 135.592 31.688C136.048 30.92 136.36 30.14 136.528 29.348ZM154.787 22.328V29.708C154.787 30.476 154.823 31.1 154.895 31.58C154.991 32.06 155.123 32.6 155.291 33.2C155.483 33.8 155.627 34.208 155.723 34.424C155.819 34.616 155.903 34.796 155.975 34.964H150.899C151.043 34.652 151.151 34.388 151.223 34.172C151.319 33.956 151.427 33.632 151.547 33.2C151.691 32.744 151.811 32.216 151.907 31.616C152.027 30.992 152.087 30.356 152.087 29.708V22.436C152.087 21.14 151.967 20.048 151.727 19.16C151.487 18.272 151.079 17.588 150.503 17.108C149.951 16.604 149.423 16.256 148.919 16.064C148.415 15.848 147.959 15.74 147.551 15.74C146.543 15.74 145.691 16.172 144.995 17.036C144.323 17.9 143.987 18.824 143.987 19.808V29.708C143.987 30.476 144.023 31.1 144.095 31.58C144.191 32.06 144.323 32.6 144.491 33.2C144.683 33.8 144.827 34.208 144.923 34.424C145.019 34.616 145.103 34.796 145.175 34.964H140.099C140.243 34.652 140.351 34.388 140.423 34.172C140.519 33.956 140.627 33.632 140.747 33.2C140.891 32.744 141.011 32.216 141.107 31.616C141.227 30.992 141.287 30.356 141.287 29.708V13.256C141.287 12.488 141.239 11.864 141.143 11.384C141.071 10.904 140.939 10.364 140.747 9.764C140.579 9.164 140.447 8.768 140.351 8.576C140.255 8.36 140.171 8.168 140.099 8H145.175C145.055 8.312 144.947 8.576 144.851 8.792C144.755 9.008 144.635 9.344 144.491 9.8C144.371 10.232 144.251 10.76 144.131 11.384C144.035 11.984 143.987 12.608 143.987 13.256V15.02C144.443 14.636 145.079 14.264 145.895 13.904C146.711 13.544 147.551 13.364 148.415 13.364C148.775 13.364 149.063 13.376 149.279 13.4C149.495 13.424 150.083 13.58 151.043 13.868C152.003 14.132 152.867 15.056 153.635 16.64C154.403 18.2 154.787 20.096 154.787 22.328ZM162.359 28.412C162.359 29.324 162.419 30.128 162.539 30.824C162.659 31.496 162.803 32.12 162.971 32.696C163.163 33.272 163.343 33.764 163.511 34.172C163.679 34.58 163.787 34.844 163.835 34.964H157.931C158.051 34.652 158.183 34.328 158.327 33.992C158.471 33.632 158.627 33.188 158.795 32.66C158.963 32.108 159.107 31.496 159.227 30.824C159.347 30.128 159.407 29.324 159.407 28.412V14.552C159.407 13.64 159.347 12.848 159.227 12.176C159.107 11.48 158.951 10.844 158.759 10.268C158.591 9.692 158.423 9.2 158.255 8.792C158.087 8.384 157.979 8.12 157.931 8H175.067C174.875 8.36 174.743 8.66 174.671 8.9C174.599 9.116 174.563 9.368 174.563 9.656C174.563 10.232 174.659 10.844 174.851 11.492C175.067 12.116 175.295 12.716 175.535 13.292C175.271 12.86 174.215 12.224 172.367 11.384C170.519 10.544 168.839 10.124 167.327 10.124C165.167 10.124 163.799 10.496 163.223 11.24C162.647 11.96 162.359 12.944 162.359 14.192V18.08C162.359 18.464 162.503 18.74 162.791 18.908C163.079 19.052 163.475 19.124 163.979 19.124C164.219 19.124 164.651 19.1 165.275 19.052C165.899 19.004 166.223 18.98 166.247 18.98C167.063 18.98 167.759 18.836 168.335 18.548C168.911 18.26 169.535 17.792 170.207 17.144C169.919 18.2 169.775 19.16 169.775 20.024C169.775 21.104 169.919 22.16 170.207 23.192C169.655 22.904 169.055 22.616 168.407 22.328C167.759 22.04 167.111 21.896 166.463 21.896H165.095C164.231 21.896 163.559 21.992 163.079 22.184C162.599 22.352 162.359 22.736 162.359 23.336V28.412ZM189.567 24.632C189.567 21.656 189.123 19.4 188.235 17.864C187.371 16.304 186.291 15.524 184.995 15.524C183.315 15.524 182.103 16.508 181.359 18.476C180.639 20.42 180.279 22.472 180.279 24.632C180.279 26.984 180.603 28.952 181.251 30.536C181.923 32.096 183.123 32.876 184.851 32.876C186.555 32.876 187.767 32.072 188.487 30.464C189.207 28.832 189.567 26.888 189.567 24.632ZM178.767 31.976C178.239 30.584 177.855 29.264 177.615 28.016C177.399 26.768 177.291 25.496 177.291 24.2C177.291 22.808 177.411 21.524 177.651 20.348C177.891 19.148 178.239 17.936 178.695 16.712C179.175 15.488 179.979 14.576 181.107 13.976C182.235 13.376 183.507 13.076 184.923 13.076C186.291 13.076 187.551 13.376 188.703 13.976C189.855 14.576 190.647 15.44 191.079 16.568C191.511 17.696 191.859 18.932 192.123 20.276C192.411 21.596 192.555 22.904 192.555 24.2C192.555 25.472 192.435 26.744 192.195 28.016C191.979 29.288 191.631 30.536 191.151 31.76C190.695 32.984 189.891 33.884 188.739 34.46C187.611 35.036 186.339 35.324 184.923 35.324C183.507 35.324 182.223 35.036 181.071 34.46C179.943 33.884 179.175 33.056 178.767 31.976ZM205.504 29.348C205.672 29.228 205.78 29.168 205.828 29.168C206.02 29.168 206.116 29.468 206.116 30.068C206.116 30.38 206.104 30.728 206.08 31.112C206.056 31.472 206.032 31.832 206.008 32.192C206.008 32.576 206.044 32.912 206.116 33.2L206.692 34.964H201.796C200.26 34.964 198.952 34.748 197.872 34.316C196.816 33.884 196.048 33.044 195.568 31.796C195.112 30.548 194.752 29.264 194.488 27.944C194.248 26.624 194.128 25.34 194.128 24.092C194.128 22.7 194.248 21.416 194.488 20.24C194.752 19.064 195.124 17.876 195.604 16.676C196.084 15.452 196.852 14.6 197.908 14.12C198.988 13.64 200.284 13.4 201.796 13.4H206.692L206.116 15.164C206.044 15.452 206.008 15.8 206.008 16.208C206.008 16.592 206.02 16.976 206.044 17.36C206.068 17.72 206.092 18.08 206.116 18.44C206.116 18.944 206.02 19.196 205.828 19.196C205.78 19.196 205.672 19.136 205.504 19.016C205.336 18.248 205.012 17.48 204.532 16.712C204.076 15.92 203.044 15.524 201.436 15.524C199.732 15.524 198.592 16.448 198.016 18.296C197.44 20.144 197.152 22.244 197.152 24.596C197.152 27.644 197.536 29.78 198.304 31.004C199.096 32.228 200.14 32.84 201.436 32.84C203.068 32.84 204.112 32.456 204.568 31.688C205.024 30.92 205.336 30.14 205.504 29.348ZM214.044 32.048C214.596 32.336 215.304 32.48 216.168 32.48C217.2 32.48 218.112 32.3 218.904 31.94C219.696 31.556 220.092 31.124 220.092 30.644V25.388C220.092 24.572 219.852 23.864 219.372 23.264C218.916 22.64 218.292 22.328 217.5 22.328C216.996 22.328 216.456 22.472 215.88 22.76C215.328 23.048 214.788 23.456 214.26 23.984C213.732 24.512 213.252 25.256 212.82 26.216C212.412 27.152 212.208 28.064 212.208 28.952C212.208 29.648 212.352 30.26 212.64 30.788C212.928 31.292 213.396 31.712 214.044 32.048ZM216.852 15.596C215.22 15.596 214.104 15.968 213.504 16.712C212.928 17.456 212.496 18.224 212.208 19.016C212.088 19.112 211.98 19.16 211.884 19.16C211.692 19.16 211.596 18.86 211.596 18.26C211.596 17.948 211.608 17.612 211.632 17.252C211.656 16.892 211.68 16.52 211.704 16.136C211.704 15.776 211.668 15.452 211.596 15.164L211.02 13.4H215.916C217.404 13.4 218.664 13.496 219.696 13.688C220.752 13.88 221.484 14.252 221.892 14.804C222.324 15.332 222.6 15.884 222.72 16.46C222.864 17.012 222.936 17.696 222.936 18.512C222.936 18.872 222.912 19.448 222.864 20.24C222.816 21.032 222.792 21.644 222.792 22.076V29.708C222.792 30.476 222.828 31.1 222.9 31.58C222.996 32.06 223.128 32.6 223.296 33.2C223.488 33.8 223.632 34.208 223.728 34.424C223.824 34.616 223.908 34.796 223.98 34.964H216.924C215.388 34.964 214.044 34.736 212.892 34.28C211.764 33.824 210.864 33.152 210.192 32.264C209.544 31.376 209.22 30.356 209.22 29.204C209.22 27.884 209.592 26.504 210.336 25.064C211.08 23.624 211.968 22.484 213 21.644C214.056 20.804 214.884 20.264 215.484 20.024C216.084 19.76 216.648 19.628 217.176 19.628C217.704 19.628 218.208 19.748 218.688 19.988C219.192 20.204 219.66 20.408 220.092 20.6V19.628C220.092 18.548 219.792 17.612 219.192 16.82C218.616 16.004 217.836 15.596 216.852 15.596ZM225.986 34.964C226.13 34.652 226.238 34.388 226.31 34.172C226.406 33.956 226.514 33.632 226.634 33.2C226.778 32.744 226.898 32.216 226.994 31.616C227.114 30.992 227.174 30.356 227.174 29.708V13.256C227.174 12.488 227.126 11.864 227.03 11.384C226.958 10.904 226.826 10.364 226.634 9.764C226.466 9.164 226.334 8.768 226.238 8.576C226.142 8.36 226.058 8.168 225.986 8H231.062C230.942 8.312 230.834 8.576 230.738 8.792C230.642 9.008 230.522 9.344 230.378 9.8C230.258 10.232 230.138 10.76 230.018 11.384C229.922 11.984 229.874 12.608 229.874 13.256V29.708C229.874 30.476 229.91 31.1 229.982 31.58C230.078 32.06 230.21 32.6 230.378 33.2C230.57 33.8 230.714 34.208 230.81 34.424C230.906 34.616 230.99 34.796 231.062 34.964H225.986ZM260.769 17.144C260.481 18.2 260.337 19.16 260.337 20.024C260.337 21.104 260.481 22.16 260.769 23.192C260.217 22.904 259.617 22.616 258.969 22.328C258.321 22.04 257.673 21.896 257.025 21.896H255.657C254.793 21.896 254.121 21.992 253.641 22.184C253.161 22.352 252.921 22.736 252.921 23.336V28.808C252.921 29.984 253.257 30.956 253.929 31.724C254.601 32.492 256.017 32.876 258.177 32.876C259.737 32.876 261.489 32.456 263.433 31.616C265.401 30.776 266.529 30.14 266.817 29.708C266.601 30.236 266.385 30.836 266.169 31.508C265.953 32.156 265.845 32.756 265.845 33.308C265.845 33.62 265.869 33.86 265.917 34.028C265.989 34.196 266.133 34.508 266.349 34.964H248.493C248.613 34.652 248.745 34.328 248.889 33.992C249.033 33.632 249.189 33.188 249.357 32.66C249.525 32.108 249.669 31.496 249.789 30.824C249.909 30.128 249.969 29.324 249.969 28.412V14.552C249.969 13.64 249.909 12.848 249.789 12.176C249.669 11.48 249.513 10.844 249.321 10.268C249.153 9.692 248.985 9.2 248.817 8.792C248.649 8.384 248.541 8.12 248.493 8H265.485C265.293 8.36 265.161 8.66 265.089 8.9C265.017 9.116 264.981 9.368 264.981 9.656C264.981 10.232 265.077 10.844 265.269 11.492C265.485 12.116 265.713 12.716 265.953 13.292C265.689 12.86 264.645 12.224 262.821 11.384C261.021 10.544 259.377 10.124 257.889 10.124C255.729 10.124 254.361 10.496 253.785 11.24C253.209 11.96 252.921 12.944 252.921 14.192V18.08C252.921 18.464 253.065 18.74 253.353 18.908C253.641 19.052 254.037 19.124 254.541 19.124C254.781 19.124 255.213 19.1 255.837 19.052C256.461 19.004 256.785 18.98 256.809 18.98C257.625 18.98 258.321 18.836 258.897 18.548C259.473 18.26 260.097 17.792 260.769 17.144ZM283.67 22.328V29.708C283.67 30.476 283.706 31.1 283.778 31.58C283.874 32.06 284.006 32.6 284.174 33.2C284.366 33.8 284.51 34.208 284.606 34.424C284.702 34.616 284.786 34.796 284.858 34.964H279.782C279.926 34.652 280.034 34.388 280.106 34.172C280.202 33.956 280.31 33.632 280.43 33.2C280.574 32.744 280.694 32.216 280.79 31.616C280.91 30.992 280.97 30.356 280.97 29.708V22.436C280.97 21.14 280.85 20.048 280.61 19.16C280.37 18.272 279.962 17.588 279.386 17.108C278.834 16.604 278.306 16.256 277.802 16.064C277.298 15.848 276.842 15.74 276.434 15.74C275.426 15.74 274.574 16.172 273.878 17.036C273.206 17.9 272.87 18.824 272.87 19.808V29.708C272.87 30.476 272.906 31.1 272.978 31.58C273.074 32.06 273.206 32.6 273.374 33.2C273.566 33.8 273.71 34.208 273.806 34.424C273.902 34.616 273.986 34.796 274.058 34.964H268.982C269.126 34.652 269.234 34.388 269.306 34.172C269.402 33.956 269.51 33.632 269.63 33.2C269.774 32.744 269.894 32.216 269.99 31.616C270.11 30.992 270.17 30.356 270.17 29.708V18.656C270.17 17.888 270.122 17.264 270.026 16.784C269.954 16.304 269.822 15.764 269.63 15.164C269.462 14.564 269.33 14.168 269.234 13.976C269.138 13.76 269.054 13.568 268.982 13.4L272.87 13.256V15.02C273.326 14.636 273.962 14.264 274.778 13.904C275.594 13.544 276.434 13.364 277.298 13.364C277.658 13.364 277.946 13.376 278.162 13.4C278.378 13.424 278.966 13.58 279.926 13.868C280.886 14.132 281.75 15.056 282.518 16.64C283.286 18.2 283.67 20.096 283.67 22.328ZM287.421 16.352C287.037 16.376 286.689 16.52 286.377 16.784C286.089 17.048 285.873 17.336 285.729 17.648C285.897 17.192 286.065 16.7 286.233 16.172C286.401 15.62 286.485 15.14 286.485 14.732C286.485 14.492 286.461 14.3 286.413 14.156C286.365 14.012 286.257 13.76 286.089 13.4H288.285C288.789 12.176 289.293 10.94 289.797 9.692C290.037 9.26 290.277 8.828 290.517 8.396C290.589 9.572 290.649 10.7 290.697 11.78C290.745 12.86 290.841 13.4 290.985 13.4H295.197C295.125 13.568 295.041 13.76 294.945 13.976C294.849 14.192 294.801 14.444 294.801 14.732C294.801 15.308 294.897 15.872 295.089 16.424C295.281 16.976 295.437 17.384 295.557 17.648C295.461 17.36 295.149 17.036 294.621 16.676C294.117 16.316 293.637 16.136 293.181 16.136C292.533 16.136 292.005 16.304 291.597 16.64C291.189 16.976 290.985 17.408 290.985 17.936V29.744C290.985 30.488 291.021 31.028 291.093 31.364C291.189 31.676 291.369 32.024 291.633 32.408C291.921 32.792 292.365 33.152 292.965 33.488C293.565 33.8 294.141 33.956 294.693 33.956C295.173 33.956 295.581 33.836 295.917 33.596C295.509 34.148 295.017 34.568 294.441 34.856C293.889 35.12 293.301 35.252 292.677 35.252C291.573 35.252 290.661 34.988 289.941 34.46C289.221 33.932 288.765 33.26 288.573 32.444C288.381 31.604 288.285 30.704 288.285 29.744V16.28C288.093 16.28 287.805 16.304 287.421 16.352ZM310.443 14.84C311.067 15.464 311.583 16.352 311.991 17.504C312.399 18.632 312.603 19.652 312.603 20.564C312.603 21.284 312.315 21.764 311.739 22.004C311.163 22.244 310.035 23.096 308.355 24.56C306.675 26.024 305.271 26.756 304.143 26.756C303.663 26.756 303.195 26.684 302.739 26.54C302.307 26.396 301.803 26.12 301.227 25.712L300.651 23.984C301.155 24.56 301.803 24.848 302.595 24.848C303.483 24.848 304.527 24.452 305.727 23.66C307.023 22.628 308.331 21.596 309.651 20.564C309.867 20.468 309.615 19.604 308.895 17.972C308.199 16.34 306.927 15.524 305.079 15.524C303.471 15.524 302.331 16.496 301.659 18.44C301.011 20.384 300.687 22.448 300.687 24.632C300.687 26.984 301.059 28.988 301.803 30.644C302.547 32.3 303.795 33.128 305.547 33.128C307.179 33.128 308.307 32.72 308.931 31.904C309.555 31.064 310.023 30.212 310.335 29.348C310.503 29.228 310.623 29.168 310.695 29.168C310.863 29.168 310.947 29.432 310.947 29.96C310.947 30.272 310.935 30.62 310.911 31.004C310.887 31.388 310.863 31.772 310.839 32.156C310.839 32.564 310.875 32.912 310.947 33.2L311.523 34.964H305.943C303.567 34.964 301.935 34.724 301.047 34.244C300.183 33.764 299.535 32.948 299.103 31.796C298.671 30.644 298.323 29.396 298.059 28.052C297.819 26.708 297.699 25.448 297.699 24.272C297.699 22.904 297.831 21.584 298.095 20.312C298.383 19.04 298.755 17.828 299.211 16.676C299.667 15.5 300.483 14.624 301.659 14.048C302.835 13.472 304.119 13.184 305.511 13.184C306.543 13.184 307.479 13.328 308.319 13.616C309.183 13.88 309.891 14.288 310.443 14.84ZM318.784 19.808V29.708C318.784 30.476 318.82 31.1 318.892 31.58C318.988 32.06 319.12 32.6 319.288 33.2C319.48 33.8 319.624 34.208 319.72 34.424C319.816 34.616 319.9 34.796 319.972 34.964H314.896C315.04 34.652 315.148 34.388 315.22 34.172C315.316 33.956 315.424 33.632 315.544 33.2C315.688 32.744 315.808 32.216 315.904 31.616C316.024 30.992 316.084 30.356 316.084 29.708V18.656C316.084 17.888 316.036 17.264 315.94 16.784C315.868 16.304 315.736 15.764 315.544 15.164C315.376 14.564 315.244 14.168 315.148 13.976C315.052 13.76 314.968 13.568 314.896 13.4L318.784 13.256V15.02C319.912 14.372 320.728 13.94 321.232 13.724C321.76 13.508 322.708 13.4 324.076 13.4H325.372H327.208L326.632 15.164C326.56 15.452 326.524 15.8 326.524 16.208C326.524 16.592 326.536 16.976 326.56 17.36C326.584 17.72 326.608 18.08 326.632 18.44C326.632 18.944 326.536 19.196 326.344 19.196C326.296 19.196 326.188 19.136 326.02 19.016C325.852 18.248 325.528 17.48 325.048 16.712C324.592 15.92 323.56 15.524 321.952 15.524C320.968 15.524 320.188 15.98 319.612 16.892C319.06 17.78 318.784 18.752 318.784 19.808ZM337.086 15.596C336.942 15.572 336.75 15.56 336.51 15.56C335.118 15.56 334.218 16.052 333.81 17.036C333.402 17.996 333.198 19.064 333.198 20.24V28.592C333.198 29.552 333.534 30.512 334.206 31.472C334.902 32.408 335.742 32.876 336.726 32.876C337.182 32.876 337.638 32.768 338.094 32.552C338.574 32.312 339.078 31.916 339.606 31.364C340.158 30.812 340.614 29.984 340.974 28.88C341.358 27.752 341.55 26.504 341.55 25.136C341.55 21.776 341.142 19.388 340.326 17.972C339.534 16.532 338.454 15.74 337.086 15.596ZM333.198 35.144C333.198 35.912 333.234 36.536 333.306 37.016C333.402 37.496 333.534 38.036 333.702 38.636C333.894 39.236 334.038 39.632 334.134 39.824C334.23 40.04 334.314 40.232 334.386 40.4H329.31C329.454 40.088 329.562 39.824 329.634 39.608C329.73 39.392 329.838 39.056 329.958 38.6C330.102 38.168 330.222 37.64 330.318 37.016C330.438 36.416 330.498 35.792 330.498 35.144V18.656C330.498 17.888 330.45 17.264 330.354 16.784C330.282 16.304 330.15 15.764 329.958 15.164C329.79 14.564 329.658 14.168 329.562 13.976C329.466 13.76 329.382 13.568 329.31 13.4H336.366C337.95 13.4 339.294 13.604 340.398 14.012C341.526 14.42 342.486 15.512 343.278 17.288C344.07 19.04 344.466 21.488 344.466 24.632C344.466 27.32 344.01 29.636 343.098 31.58C342.21 33.5 341.19 34.556 340.038 34.748C338.886 34.94 338.106 35.036 337.698 35.036C336.762 35.036 336.006 34.904 335.43 34.64C334.854 34.352 334.11 33.932 333.198 33.38V35.144ZM350.108 19.808V29.708C350.108 30.476 350.144 31.1 350.216 31.58C350.312 32.06 350.444 32.6 350.612 33.2C350.804 33.8 350.948 34.208 351.044 34.424C351.14 34.616 351.224 34.796 351.296 34.964H346.22C346.364 34.652 346.472 34.388 346.544 34.172C346.64 33.956 346.748 33.632 346.868 33.2C347.012 32.744 347.132 32.216 347.228 31.616C347.348 30.992 347.408 30.356 347.408 29.708V18.656C347.408 17.888 347.36 17.264 347.264 16.784C347.192 16.304 347.06 15.764 346.868 15.164C346.7 14.564 346.568 14.168 346.472 13.976C346.376 13.76 346.292 13.568 346.22 13.4L350.108 13.256V15.02C351.236 14.372 352.052 13.94 352.556 13.724C353.084 13.508 354.032 13.4 355.4 13.4H356.696H358.532L357.956 15.164C357.884 15.452 357.848 15.8 357.848 16.208C357.848 16.592 357.86 16.976 357.884 17.36C357.908 17.72 357.932 18.08 357.956 18.44C357.956 18.944 357.86 19.196 357.668 19.196C357.62 19.196 357.512 19.136 357.344 19.016C357.176 18.248 356.852 17.48 356.372 16.712C355.916 15.92 354.884 15.524 353.276 15.524C352.292 15.524 351.512 15.98 350.936 16.892C350.384 17.78 350.108 18.752 350.108 19.808ZM360.634 34.964C360.778 34.652 360.886 34.388 360.958 34.172C361.054 33.956 361.162 33.632 361.282 33.2C361.426 32.744 361.546 32.216 361.642 31.616C361.762 30.992 361.822 30.356 361.822 29.708V18.692C361.822 17.924 361.774 17.3 361.678 16.82C361.606 16.34 361.474 15.8 361.282 15.2C361.114 14.6 360.982 14.204 360.886 14.012C360.79 13.796 360.706 13.604 360.634 13.436H365.71C365.59 13.748 365.482 14.012 365.386 14.228C365.29 14.444 365.17 14.78 365.026 15.236C364.906 15.668 364.786 16.196 364.666 16.82C364.57 17.42 364.522 18.044 364.522 18.692V29.708C364.522 30.476 364.558 31.1 364.63 31.58C364.726 32.06 364.858 32.6 365.026 33.2C365.218 33.8 365.362 34.208 365.458 34.424C365.554 34.616 365.638 34.796 365.71 34.964H360.634ZM365.674 9.62C365.674 10.124 365.422 10.52 364.918 10.808C364.438 11.096 363.85 11.24 363.154 11.24C362.458 11.24 361.858 11.096 361.354 10.808C360.874 10.52 360.634 10.124 360.634 9.62C360.634 9.116 360.874 8.72 361.354 8.432C361.858 8.144 362.458 8 363.154 8C363.85 8 364.438 8.144 364.918 8.432C365.422 8.72 365.674 9.116 365.674 9.62ZM381.071 31.22C380.855 32.588 380.159 33.56 378.983 34.136C377.807 34.688 376.379 34.964 374.699 34.964H368.219C368.315 34.676 368.411 34.376 368.507 34.064C368.627 33.728 368.699 33.488 368.723 33.344C368.771 33.2 368.795 33.02 368.795 32.804C368.795 32.564 368.807 32.372 368.831 32.228C368.831 31.892 368.819 31.556 368.795 31.22C368.771 30.86 368.747 30.512 368.723 30.176C368.723 29.552 368.855 29.24 369.119 29.24C369.191 29.24 369.287 29.276 369.407 29.348C369.503 29.804 369.791 30.5 370.271 31.436C370.751 32.372 372.335 32.84 375.023 32.84C375.959 32.84 376.751 32.552 377.399 31.976C378.071 31.376 378.407 30.572 378.407 29.564C378.407 29.444 378.395 29.312 378.371 29.168C378.371 29 378.263 28.532 378.047 27.764C377.855 26.996 377.039 26.132 375.599 25.172C374.159 24.188 372.779 23.264 371.459 22.4C370.115 21.344 369.443 20.132 369.443 18.764C369.443 18.14 369.611 17.336 369.947 16.352C370.283 15.344 370.991 14.6 372.071 14.12C373.175 13.64 374.495 13.4 376.031 13.4H380.927L380.351 15.164C380.279 15.524 380.243 15.956 380.243 16.46C380.243 16.772 380.243 17.084 380.243 17.396C380.243 17.684 380.255 17.972 380.279 18.26C380.279 18.908 380.207 19.232 380.063 19.232C379.991 19.232 379.883 19.16 379.739 19.016C379.667 18.2 379.439 17.384 379.055 16.568C378.671 15.728 377.711 15.308 376.175 15.308C375.047 15.308 374.123 15.488 373.403 15.848C372.707 16.184 372.359 17.048 372.359 18.44C372.359 19.76 373.091 20.84 374.555 21.68C376.043 22.52 377.495 23.336 378.911 24.128C380.471 25.352 381.251 27.032 381.251 29.168C381.251 29.552 381.227 29.936 381.179 30.32C381.131 30.68 381.095 30.98 381.071 31.22ZM395.838 14.84C396.462 15.464 396.978 16.352 397.386 17.504C397.794 18.632 397.998 19.652 397.998 20.564C397.998 21.284 397.71 21.764 397.134 22.004C396.558 22.244 395.43 23.096 393.75 24.56C392.07 26.024 390.666 26.756 389.538 26.756C389.058 26.756 388.59 26.684 388.134 26.54C387.702 26.396 387.198 26.12 386.622 25.712L386.046 23.984C386.55 24.56 387.198 24.848 387.99 24.848C388.878 24.848 389.922 24.452 391.122 23.66C392.418 22.628 393.726 21.596 395.046 20.564C395.262 20.468 395.01 19.604 394.29 17.972C393.594 16.34 392.322 15.524 390.474 15.524C388.866 15.524 387.726 16.496 387.054 18.44C386.406 20.384 386.082 22.448 386.082 24.632C386.082 26.984 386.454 28.988 387.198 30.644C387.942 32.3 389.19 33.128 390.942 33.128C392.574 33.128 393.702 32.72 394.326 31.904C394.95 31.064 395.418 30.212 395.73 29.348C395.898 29.228 396.018 29.168 396.09 29.168C396.258 29.168 396.342 29.432 396.342 29.96C396.342 30.272 396.33 30.62 396.306 31.004C396.282 31.388 396.258 31.772 396.234 32.156C396.234 32.564 396.27 32.912 396.342 33.2L396.918 34.964H391.338C388.962 34.964 387.33 34.724 386.442 34.244C385.578 33.764 384.93 32.948 384.498 31.796C384.066 30.644 383.718 29.396 383.454 28.052C383.214 26.708 383.094 25.448 383.094 24.272C383.094 22.904 383.226 21.584 383.49 20.312C383.778 19.04 384.15 17.828 384.606 16.676C385.062 15.5 385.878 14.624 387.054 14.048C388.23 13.472 389.514 13.184 390.906 13.184C391.938 13.184 392.874 13.328 393.714 13.616C394.578 13.88 395.286 14.288 395.838 14.84ZM412.746 31.22C412.53 32.588 411.834 33.56 410.658 34.136C409.482 34.688 408.054 34.964 406.374 34.964H399.894C399.99 34.676 400.086 34.376 400.182 34.064C400.302 33.728 400.374 33.488 400.398 33.344C400.446 33.2 400.47 33.02 400.47 32.804C400.47 32.564 400.482 32.372 400.506 32.228C400.506 31.892 400.494 31.556 400.47 31.22C400.446 30.86 400.422 30.512 400.398 30.176C400.398 29.552 400.53 29.24 400.794 29.24C400.866 29.24 400.962 29.276 401.082 29.348C401.178 29.804 401.466 30.5 401.946 31.436C402.426 32.372 404.01 32.84 406.698 32.84C407.634 32.84 408.426 32.552 409.074 31.976C409.746 31.376 410.082 30.572 410.082 29.564C410.082 29.444 410.07 29.312 410.046 29.168C410.046 29 409.938 28.532 409.722 27.764C409.53 26.996 408.714 26.132 407.274 25.172C405.834 24.188 404.454 23.264 403.134 22.4C401.79 21.344 401.118 20.132 401.118 18.764C401.118 18.14 401.286 17.336 401.622 16.352C401.958 15.344 402.666 14.6 403.746 14.12C404.85 13.64 406.17 13.4 407.706 13.4H412.602L412.026 15.164C411.954 15.524 411.918 15.956 411.918 16.46C411.918 16.772 411.918 17.084 411.918 17.396C411.918 17.684 411.93 17.972 411.954 18.26C411.954 18.908 411.882 19.232 411.738 19.232C411.666 19.232 411.558 19.16 411.414 19.016C411.342 18.2 411.114 17.384 410.73 16.568C410.346 15.728 409.386 15.308 407.85 15.308C406.722 15.308 405.798 15.488 405.078 15.848C404.382 16.184 404.034 17.048 404.034 18.44C404.034 19.76 404.766 20.84 406.23 21.68C407.718 22.52 409.17 23.336 410.586 24.128C412.146 25.352 412.926 27.032 412.926 29.168C412.926 29.552 412.902 29.936 412.854 30.32C412.806 30.68 412.77 30.98 412.746 31.22ZM439.408 32.876C440.968 32.876 442.72 32.456 444.664 31.616C446.632 30.776 447.76 30.14 448.048 29.708C447.832 30.236 447.616 30.836 447.4 31.508C447.184 32.156 447.076 32.756 447.076 33.308C447.076 33.62 447.1 33.86 447.148 34.028C447.22 34.196 447.364 34.508 447.58 34.964H429.724C429.844 34.652 429.976 34.328 430.12 33.992C430.264 33.632 430.42 33.188 430.588 32.66C430.756 32.108 430.9 31.496 431.02 30.824C431.14 30.128 431.2 29.324 431.2 28.412V14.552C431.2 13.64 431.14 12.848 431.02 12.176C430.9 11.48 430.744 10.844 430.552 10.268C430.384 9.692 430.216 9.2 430.048 8.792C429.88 8.384 429.772 8.12 429.724 8H435.628C435.508 8.312 435.376 8.648 435.232 9.008C435.088 9.344 434.932 9.788 434.764 10.34C434.596 10.868 434.452 11.48 434.332 12.176C434.212 12.848 434.152 13.64 434.152 14.552V28.412C434.152 29.972 434.464 31.112 435.088 31.832C435.712 32.528 437.152 32.876 439.408 32.876ZM460.22 32.876C461.78 32.876 463.532 32.456 465.476 31.616C467.444 30.776 468.572 30.14 468.86 29.708C468.644 30.236 468.428 30.836 468.212 31.508C467.996 32.156 467.888 32.756 467.888 33.308C467.888 33.62 467.912 33.86 467.96 34.028C468.032 34.196 468.176 34.508 468.392 34.964H450.536C450.656 34.652 450.788 34.328 450.932 33.992C451.076 33.632 451.232 33.188 451.4 32.66C451.568 32.108 451.712 31.496 451.832 30.824C451.952 30.128 452.012 29.324 452.012 28.412V14.552C452.012 13.64 451.952 12.848 451.832 12.176C451.712 11.48 451.556 10.844 451.364 10.268C451.196 9.692 451.028 9.2 450.86 8.792C450.692 8.384 450.584 8.12 450.536 8H456.44C456.32 8.312 456.188 8.648 456.044 9.008C455.9 9.344 455.744 9.788 455.576 10.34C455.408 10.868 455.264 11.48 455.144 12.176C455.024 12.848 454.964 13.64 454.964 14.552V28.412C454.964 29.972 455.276 31.112 455.9 31.832C456.524 32.528 457.964 32.876 460.22 32.876ZM483.769 22.112C483.001 22.664 481.477 23.144 479.197 23.552C476.917 23.96 475.777 24.272 475.777 24.488V28.412C475.777 29.324 475.837 30.128 475.957 30.824C476.077 31.496 476.221 32.12 476.389 32.696C476.581 33.272 476.761 33.764 476.929 34.172C477.097 34.58 477.205 34.844 477.253 34.964H471.349C471.469 34.652 471.601 34.328 471.745 33.992C471.889 33.632 472.045 33.188 472.213 32.66C472.381 32.108 472.525 31.496 472.645 30.824C472.765 30.128 472.825 29.324 472.825 28.412V14.552C472.825 13.64 472.765 12.848 472.645 12.176C472.525 11.48 472.369 10.844 472.177 10.268C472.009 9.692 471.841 9.2 471.673 8.792C471.505 8.384 471.397 8.12 471.349 8H480.169C482.233 8 483.949 8.288 485.317 8.864C486.685 9.416 487.477 10.256 487.693 11.384C487.933 12.488 488.053 13.388 488.053 14.084C488.053 15.668 487.681 17.156 486.937 18.548C486.217 19.916 485.161 21.104 483.769 22.112ZM480.601 10.196C478.441 10.196 477.097 10.544 476.569 11.24C476.041 11.936 475.777 12.92 475.777 14.192V19.016C475.777 19.688 475.969 20.18 476.353 20.492C476.737 20.78 477.265 20.924 477.937 20.924C478.657 20.924 479.437 20.756 480.277 20.42C481.141 20.084 481.909 19.652 482.581 19.124C483.277 18.572 483.841 17.96 484.273 17.288C484.729 16.616 484.957 15.8 484.957 14.84C484.957 14.48 484.873 13.904 484.705 13.112C484.537 12.32 484.069 11.636 483.301 11.06C482.533 10.484 481.633 10.196 480.601 10.196Z" fill="#1E3A8A"/>
<path d="M186.624 47.184L185.94 49.056C186.036 49.056 186.108 49.056 186.156 49.056C186.468 49.056 186.744 49.11 186.984 49.218C187.236 49.326 187.362 49.536 187.362 49.848C187.362 50.1 187.236 50.298 186.984 50.442C186.744 50.586 186.45 50.658 186.102 50.658C185.754 50.658 185.454 50.586 185.202 50.442C184.962 50.298 184.842 50.1 184.842 49.848C184.842 49.416 185.106 48.858 185.634 48.174C186.174 47.49 186.504 47.16 186.624 47.184ZM183.024 47.184L182.34 49.056C182.436 49.056 182.508 49.056 182.556 49.056C182.868 49.056 183.144 49.11 183.384 49.218C183.636 49.326 183.762 49.536 183.762 49.848C183.762 50.1 183.636 50.298 183.384 50.442C183.144 50.586 182.85 50.658 182.502 50.658C182.154 50.658 181.854 50.586 181.602 50.442C181.362 50.298 181.242 50.1 181.242 49.848C181.242 49.416 181.506 48.858 182.034 48.174C182.574 47.49 182.904 47.16 183.024 47.184ZM196.224 53.916C196.14 54.276 196.074 54.552 196.026 54.744C195.978 54.936 195.822 55.518 195.558 56.49C195.306 57.45 194.946 58.272 194.478 58.956C194.01 59.64 193.716 59.982 193.596 59.982H192.66C192.552 59.982 192.276 59.646 191.832 58.974C191.388 58.29 191.046 57.606 190.806 56.922C190.566 56.226 190.344 55.278 190.14 54.078C189.948 52.866 189.768 51.714 189.6 50.622C189.432 49.518 189.252 48.72 189.06 48.228L188.34 46.5H191.292C191.28 46.524 191.214 46.758 191.094 47.202C190.986 47.646 190.914 47.994 190.878 48.246C190.854 48.486 190.836 48.726 190.824 48.966C190.812 49.194 190.806 49.41 190.806 49.614C190.806 50.718 190.95 51.858 191.238 53.034C191.538 54.21 191.88 55.278 192.264 56.238C192.648 57.186 192.93 57.798 193.11 58.074C193.614 57.198 194.052 56.304 194.424 55.392C194.796 54.468 195.036 53.748 195.144 53.232C195.264 52.716 195.36 52.29 195.432 51.954C195.516 51.606 195.576 51.288 195.612 51C195.576 50.688 195.522 50.364 195.45 50.028C195.39 49.692 195.252 49.212 195.036 48.588C194.82 47.964 194.682 47.586 194.622 47.454C194.574 47.322 194.43 47.004 194.19 46.5H197.142C197.13 46.524 197.064 46.758 196.944 47.202C196.836 47.646 196.758 48.036 196.71 48.372C196.674 48.708 196.656 49.092 196.656 49.524C196.656 50.616 196.824 51.768 197.16 52.98C197.496 54.18 197.874 55.26 198.294 56.22C198.726 57.18 199.038 57.798 199.23 58.074C199.422 57.798 199.71 57.192 200.094 56.256C200.49 55.32 200.844 54.24 201.156 53.016C201.48 51.792 201.642 50.646 201.642 49.578C201.642 49.326 201.642 49.074 201.642 48.822C201.606 48.618 201.57 48.372 201.534 48.084C201.498 47.784 201.438 47.49 201.354 47.202C201.27 46.902 201.204 46.668 201.156 46.5H204.108L203.406 48.228C203.226 48.684 203.04 49.47 202.848 50.586C202.668 51.69 202.476 52.848 202.272 54.06C202.068 55.272 201.846 56.226 201.606 56.922C201.366 57.606 201.018 58.29 200.562 58.974C200.118 59.646 199.836 59.982 199.716 59.982H198.78C198.66 59.982 198.372 59.646 197.916 58.974C197.472 58.29 197.148 57.594 196.944 56.886C196.752 56.166 196.602 55.572 196.494 55.104C196.386 54.636 196.296 54.24 196.224 53.916ZM212.354 53.664V57.354C212.354 57.738 212.372 58.05 212.408 58.29C212.456 58.53 212.522 58.8 212.606 59.1C212.702 59.4 212.774 59.604 212.822 59.712C212.87 59.808 212.912 59.898 212.948 59.982H210.41C210.482 59.826 210.536 59.694 210.572 59.586C210.62 59.478 210.674 59.316 210.734 59.1C210.806 58.872 210.866 58.608 210.914 58.308C210.974 57.996 211.004 57.678 211.004 57.354V53.718C211.004 53.07 210.944 52.524 210.824 52.08C210.704 51.636 210.5 51.294 210.212 51.054C209.936 50.802 209.672 50.628 209.42 50.532C209.168 50.424 208.94 50.37 208.736 50.37C208.232 50.37 207.806 50.586 207.458 51.018C207.122 51.45 206.954 51.912 206.954 52.404V57.354C206.954 57.738 206.972 58.05 207.008 58.29C207.056 58.53 207.122 58.8 207.206 59.1C207.302 59.4 207.374 59.604 207.422 59.712C207.47 59.808 207.512 59.898 207.548 59.982H205.01C205.082 59.826 205.136 59.694 205.172 59.586C205.22 59.478 205.274 59.316 205.334 59.1C205.406 58.872 205.466 58.608 205.514 58.308C205.574 57.996 205.604 57.678 205.604 57.354V49.128C205.604 48.744 205.58 48.432 205.532 48.192C205.496 47.952 205.43 47.682 205.334 47.382C205.25 47.082 205.184 46.884 205.136 46.788C205.088 46.68 205.046 46.584 205.01 46.5H207.548C207.488 46.656 207.434 46.788 207.386 46.896C207.338 47.004 207.278 47.172 207.206 47.4C207.146 47.616 207.086 47.88 207.026 48.192C206.978 48.492 206.954 48.804 206.954 49.128V50.01C207.182 49.818 207.5 49.632 207.908 49.452C208.316 49.272 208.736 49.182 209.168 49.182C209.348 49.182 209.492 49.188 209.6 49.2C209.708 49.212 210.002 49.29 210.482 49.434C210.962 49.566 211.394 50.028 211.778 50.82C212.162 51.6 212.354 52.548 212.354 53.664ZM220.028 49.92C220.34 50.232 220.598 50.676 220.802 51.252C221.006 51.816 221.108 52.326 221.108 52.782C221.108 53.142 220.964 53.382 220.676 53.502C220.388 53.622 219.824 54.048 218.984 54.78C218.144 55.512 217.442 55.878 216.878 55.878C216.638 55.878 216.404 55.842 216.176 55.77C215.96 55.698 215.708 55.56 215.42 55.356L215.132 54.492C215.384 54.78 215.708 54.924 216.104 54.924C216.548 54.924 217.07 54.726 217.67 54.33C218.318 53.814 218.972 53.298 219.632 52.782C219.74 52.734 219.614 52.302 219.254 51.486C218.906 50.67 218.27 50.262 217.346 50.262C216.542 50.262 215.972 50.748 215.636 51.72C215.312 52.692 215.15 53.724 215.15 54.816C215.15 55.992 215.336 56.994 215.708 57.822C216.08 58.65 216.704 59.064 217.58 59.064C218.396 59.064 218.96 58.86 219.272 58.452C219.584 58.032 219.818 57.606 219.974 57.174C220.058 57.114 220.118 57.084 220.154 57.084C220.238 57.084 220.28 57.216 220.28 57.48C220.28 57.636 220.274 57.81 220.262 58.002C220.25 58.194 220.238 58.386 220.226 58.578C220.226 58.782 220.244 58.956 220.28 59.1L220.568 59.982H217.778C216.59 59.982 215.774 59.862 215.33 59.622C214.898 59.382 214.574 58.974 214.358 58.398C214.142 57.822 213.968 57.198 213.836 56.526C213.716 55.854 213.656 55.224 213.656 54.636C213.656 53.952 213.722 53.292 213.854 52.656C213.998 52.02 214.184 51.414 214.412 50.838C214.64 50.25 215.048 49.812 215.636 49.524C216.224 49.236 216.866 49.092 217.562 49.092C218.078 49.092 218.546 49.164 218.966 49.308C219.398 49.44 219.752 49.644 220.028 49.92ZM224.199 52.404V57.354C224.199 57.738 224.217 58.05 224.253 58.29C224.301 58.53 224.367 58.8 224.451 59.1C224.547 59.4 224.619 59.604 224.667 59.712C224.715 59.808 224.757 59.898 224.793 59.982H222.255C222.327 59.826 222.381 59.694 222.417 59.586C222.465 59.478 222.519 59.316 222.579 59.1C222.651 58.872 222.711 58.608 222.759 58.308C222.819 57.996 222.849 57.678 222.849 57.354V51.828C222.849 51.444 222.825 51.132 222.777 50.892C222.741 50.652 222.675 50.382 222.579 50.082C222.495 49.782 222.429 49.584 222.381 49.488C222.333 49.38 222.291 49.284 222.255 49.2L224.199 49.128V50.01C224.763 49.686 225.171 49.47 225.423 49.362C225.687 49.254 226.161 49.2 226.845 49.2H227.493H228.411L228.123 50.082C228.087 50.226 228.069 50.4 228.069 50.604C228.069 50.796 228.075 50.988 228.087 51.18C228.099 51.36 228.111 51.54 228.123 51.72C228.123 51.972 228.075 52.098 227.979 52.098C227.955 52.098 227.901 52.068 227.817 52.008C227.733 51.624 227.571 51.24 227.331 50.856C227.103 50.46 226.587 50.262 225.783 50.262C225.291 50.262 224.901 50.49 224.613 50.946C224.337 51.39 224.199 51.876 224.199 52.404ZM235.726 49.92C236.038 50.232 236.296 50.676 236.5 51.252C236.704 51.816 236.806 52.326 236.806 52.782C236.806 53.142 236.662 53.382 236.374 53.502C236.086 53.622 235.522 54.048 234.682 54.78C233.842 55.512 233.14 55.878 232.576 55.878C232.336 55.878 232.102 55.842 231.874 55.77C231.658 55.698 231.406 55.56 231.118 55.356L230.83 54.492C231.082 54.78 231.406 54.924 231.802 54.924C232.246 54.924 232.768 54.726 233.368 54.33C234.016 53.814 234.67 53.298 235.33 52.782C235.438 52.734 235.312 52.302 234.952 51.486C234.604 50.67 233.968 50.262 233.044 50.262C232.24 50.262 231.67 50.748 231.334 51.72C231.01 52.692 230.848 53.724 230.848 54.816C230.848 55.992 231.034 56.994 231.406 57.822C231.778 58.65 232.402 59.064 233.278 59.064C234.094 59.064 234.658 58.86 234.97 58.452C235.282 58.032 235.516 57.606 235.672 57.174C235.756 57.114 235.816 57.084 235.852 57.084C235.936 57.084 235.978 57.216 235.978 57.48C235.978 57.636 235.972 57.81 235.96 58.002C235.948 58.194 235.936 58.386 235.924 58.578C235.924 58.782 235.942 58.956 235.978 59.1L236.266 59.982H233.476C232.288 59.982 231.472 59.862 231.028 59.622C230.596 59.382 230.272 58.974 230.056 58.398C229.84 57.822 229.666 57.198 229.534 56.526C229.414 55.854 229.354 55.224 229.354 54.636C229.354 53.952 229.42 53.292 229.552 52.656C229.696 52.02 229.882 51.414 230.11 50.838C230.338 50.25 230.746 49.812 231.334 49.524C231.922 49.236 232.564 49.092 233.26 49.092C233.776 49.092 234.244 49.164 234.664 49.308C235.096 49.44 235.45 49.644 235.726 49.92ZM255.689 46.5C255.593 46.68 255.527 46.83 255.491 46.95C255.455 47.058 255.437 47.184 255.437 47.328C255.437 47.616 255.485 47.922 255.581 48.246C255.689 48.558 255.803 48.858 255.923 49.146C255.851 48.93 255.491 48.63 254.843 48.246C254.195 47.85 253.703 47.634 253.367 47.598C253.031 47.562 252.827 47.544 252.755 47.544C252.695 47.544 252.653 47.544 252.629 47.544C251.981 47.544 251.555 47.742 251.351 48.138C251.147 48.522 251.045 49.008 251.045 49.596V56.706C251.045 57.162 251.075 57.564 251.135 57.912C251.195 58.248 251.267 58.56 251.351 58.848C251.447 59.136 251.537 59.382 251.621 59.586C251.705 59.79 251.759 59.922 251.783 59.982H248.831C248.891 59.826 248.957 59.664 249.029 59.496C249.101 59.316 249.179 59.094 249.263 58.83C249.347 58.554 249.419 58.248 249.479 57.912C249.539 57.564 249.569 57.162 249.569 56.706V49.596C249.569 48.996 249.473 48.504 249.281 48.12C249.089 47.736 248.657 47.544 247.985 47.544C247.841 47.544 247.601 47.562 247.265 47.598C246.941 47.634 246.449 47.85 245.789 48.246C245.141 48.642 244.781 48.942 244.709 49.146C244.817 48.87 244.925 48.564 245.033 48.228C245.141 47.892 245.195 47.592 245.195 47.328C245.195 47.184 245.177 47.058 245.141 46.95C245.105 46.83 245.039 46.68 244.943 46.5H255.689ZM262.022 49.92C262.334 50.232 262.592 50.676 262.796 51.252C263 51.816 263.102 52.326 263.102 52.782C263.102 53.142 262.958 53.382 262.67 53.502C262.382 53.622 261.818 54.048 260.978 54.78C260.138 55.512 259.436 55.878 258.872 55.878C258.632 55.878 258.398 55.842 258.17 55.77C257.954 55.698 257.702 55.56 257.414 55.356L257.126 54.492C257.378 54.78 257.702 54.924 258.098 54.924C258.542 54.924 259.064 54.726 259.664 54.33C260.312 53.814 260.966 53.298 261.626 52.782C261.734 52.734 261.608 52.302 261.248 51.486C260.9 50.67 260.264 50.262 259.34 50.262C258.536 50.262 257.966 50.748 257.63 51.72C257.306 52.692 257.144 53.724 257.144 54.816C257.144 55.992 257.33 56.994 257.702 57.822C258.074 58.65 258.698 59.064 259.574 59.064C260.39 59.064 260.954 58.86 261.266 58.452C261.578 58.032 261.812 57.606 261.968 57.174C262.052 57.114 262.112 57.084 262.148 57.084C262.232 57.084 262.274 57.216 262.274 57.48C262.274 57.636 262.268 57.81 262.256 58.002C262.244 58.194 262.232 58.386 262.22 58.578C262.22 58.782 262.238 58.956 262.274 59.1L262.562 59.982H259.772C258.584 59.982 257.768 59.862 257.324 59.622C256.892 59.382 256.568 58.974 256.352 58.398C256.136 57.822 255.962 57.198 255.83 56.526C255.71 55.854 255.65 55.224 255.65 54.636C255.65 53.952 255.716 53.292 255.848 52.656C255.992 52.02 256.178 51.414 256.406 50.838C256.634 50.25 257.042 49.812 257.63 49.524C258.218 49.236 258.86 49.092 259.556 49.092C260.072 49.092 260.54 49.164 260.96 49.308C261.392 49.44 261.746 49.644 262.022 49.92ZM269.811 57.174C269.895 57.114 269.949 57.084 269.973 57.084C270.069 57.084 270.117 57.234 270.117 57.534C270.117 57.69 270.111 57.864 270.099 58.056C270.087 58.236 270.075 58.416 270.063 58.596C270.063 58.788 270.081 58.956 270.117 59.1L270.405 59.982H267.957C267.189 59.982 266.535 59.874 265.995 59.658C265.467 59.442 265.083 59.022 264.843 58.398C264.615 57.774 264.435 57.132 264.303 56.472C264.183 55.812 264.123 55.17 264.123 54.546C264.123 53.85 264.183 53.208 264.303 52.62C264.435 52.032 264.621 51.438 264.861 50.838C265.101 50.226 265.485 49.8 266.013 49.56C266.553 49.32 267.201 49.2 267.957 49.2H270.405L270.117 50.082C270.081 50.226 270.063 50.4 270.063 50.604C270.063 50.796 270.069 50.988 270.081 51.18C270.093 51.36 270.105 51.54 270.117 51.72C270.117 51.972 270.069 52.098 269.973 52.098C269.949 52.098 269.895 52.068 269.811 52.008C269.727 51.624 269.565 51.24 269.325 50.856C269.097 50.46 268.581 50.262 267.777 50.262C266.925 50.262 266.355 50.724 266.067 51.648C265.779 52.572 265.635 53.622 265.635 54.798C265.635 56.322 265.827 57.39 266.211 58.002C266.607 58.614 267.129 58.92 267.777 58.92C268.593 58.92 269.115 58.728 269.343 58.344C269.571 57.96 269.727 57.57 269.811 57.174ZM278.94 53.664V57.354C278.94 57.738 278.958 58.05 278.994 58.29C279.042 58.53 279.108 58.8 279.192 59.1C279.288 59.4 279.36 59.604 279.408 59.712C279.456 59.808 279.498 59.898 279.534 59.982H276.996C277.068 59.826 277.122 59.694 277.158 59.586C277.206 59.478 277.26 59.316 277.32 59.1C277.392 58.872 277.452 58.608 277.5 58.308C277.56 57.996 277.59 57.678 277.59 57.354V53.718C277.59 53.07 277.53 52.524 277.41 52.08C277.29 51.636 277.086 51.294 276.798 51.054C276.522 50.802 276.258 50.628 276.006 50.532C275.754 50.424 275.526 50.37 275.322 50.37C274.818 50.37 274.392 50.586 274.044 51.018C273.708 51.45 273.54 51.912 273.54 52.404V57.354C273.54 57.738 273.558 58.05 273.594 58.29C273.642 58.53 273.708 58.8 273.792 59.1C273.888 59.4 273.96 59.604 274.008 59.712C274.056 59.808 274.098 59.898 274.134 59.982H271.596C271.668 59.826 271.722 59.694 271.758 59.586C271.806 59.478 271.86 59.316 271.92 59.1C271.992 58.872 272.052 58.608 272.1 58.308C272.16 57.996 272.19 57.678 272.19 57.354V49.128C272.19 48.744 272.166 48.432 272.118 48.192C272.082 47.952 272.016 47.682 271.92 47.382C271.836 47.082 271.77 46.884 271.722 46.788C271.674 46.68 271.632 46.584 271.596 46.5H274.134C274.074 46.656 274.02 46.788 273.972 46.896C273.924 47.004 273.864 47.172 273.792 47.4C273.732 47.616 273.672 47.88 273.612 48.192C273.564 48.492 273.54 48.804 273.54 49.128V50.01C273.768 49.818 274.086 49.632 274.494 49.452C274.902 49.272 275.322 49.182 275.754 49.182C275.934 49.182 276.078 49.188 276.186 49.2C276.294 49.212 276.588 49.29 277.068 49.434C277.548 49.566 277.98 50.028 278.364 50.82C278.748 51.6 278.94 52.548 278.94 53.664ZM287.694 53.664V57.354C287.694 57.738 287.712 58.05 287.748 58.29C287.796 58.53 287.862 58.8 287.946 59.1C288.042 59.4 288.114 59.604 288.162 59.712C288.21 59.808 288.252 59.898 288.288 59.982H285.75C285.822 59.826 285.876 59.694 285.912 59.586C285.96 59.478 286.014 59.316 286.074 59.1C286.146 58.872 286.206 58.608 286.254 58.308C286.314 57.996 286.344 57.678 286.344 57.354V53.718C286.344 53.07 286.284 52.524 286.164 52.08C286.044 51.636 285.84 51.294 285.552 51.054C285.276 50.802 285.012 50.628 284.76 50.532C284.508 50.424 284.28 50.37 284.076 50.37C283.572 50.37 283.146 50.586 282.798 51.018C282.462 51.45 282.294 51.912 282.294 52.404V57.354C282.294 57.738 282.312 58.05 282.348 58.29C282.396 58.53 282.462 58.8 282.546 59.1C282.642 59.4 282.714 59.604 282.762 59.712C282.81 59.808 282.852 59.898 282.888 59.982H280.35C280.422 59.826 280.476 59.694 280.512 59.586C280.56 59.478 280.614 59.316 280.674 59.1C280.746 58.872 280.806 58.608 280.854 58.308C280.914 57.996 280.944 57.678 280.944 57.354V51.828C280.944 51.444 280.92 51.132 280.872 50.892C280.836 50.652 280.77 50.382 280.674 50.082C280.59 49.782 280.524 49.584 280.476 49.488C280.428 49.38 280.386 49.284 280.35 49.2L282.294 49.128V50.01C282.522 49.818 282.84 49.632 283.248 49.452C283.656 49.272 284.076 49.182 284.508 49.182C284.688 49.182 284.832 49.188 284.94 49.2C285.048 49.212 285.342 49.29 285.822 49.434C286.302 49.566 286.734 50.028 287.118 50.82C287.502 51.6 287.694 52.548 287.694 53.664ZM295.276 54.816C295.276 53.328 295.054 52.2 294.61 51.432C294.178 50.652 293.638 50.262 292.99 50.262C292.15 50.262 291.544 50.754 291.172 51.738C290.812 52.71 290.632 53.736 290.632 54.816C290.632 55.992 290.794 56.976 291.118 57.768C291.454 58.548 292.054 58.938 292.918 58.938C293.77 58.938 294.376 58.536 294.736 57.732C295.096 56.916 295.276 55.944 295.276 54.816ZM289.876 58.488C289.612 57.792 289.42 57.132 289.3 56.508C289.192 55.884 289.138 55.248 289.138 54.6C289.138 53.904 289.198 53.262 289.318 52.674C289.438 52.074 289.612 51.468 289.84 50.856C290.08 50.244 290.482 49.788 291.046 49.488C291.61 49.188 292.246 49.038 292.954 49.038C293.638 49.038 294.268 49.188 294.844 49.488C295.42 49.788 295.816 50.22 296.032 50.784C296.248 51.348 296.422 51.966 296.554 52.638C296.698 53.298 296.77 53.952 296.77 54.6C296.77 55.236 296.71 55.872 296.59 56.508C296.482 57.144 296.308 57.768 296.068 58.38C295.84 58.992 295.438 59.442 294.862 59.73C294.298 60.018 293.662 60.162 292.954 60.162C292.246 60.162 291.604 60.018 291.028 59.73C290.464 59.442 290.08 59.028 289.876 58.488ZM297.682 59.982C297.754 59.826 297.808 59.694 297.844 59.586C297.892 59.478 297.946 59.316 298.006 59.1C298.078 58.872 298.138 58.608 298.186 58.308C298.246 57.996 298.276 57.678 298.276 57.354V49.128C298.276 48.744 298.252 48.432 298.204 48.192C298.168 47.952 298.102 47.682 298.006 47.382C297.922 47.082 297.856 46.884 297.808 46.788C297.76 46.68 297.718 46.584 297.682 46.5H300.22C300.16 46.656 300.106 46.788 300.058 46.896C300.01 47.004 299.95 47.172 299.878 47.4C299.818 47.616 299.758 47.88 299.698 48.192C299.65 48.492 299.626 48.804 299.626 49.128V57.354C299.626 57.738 299.644 58.05 299.68 58.29C299.728 58.53 299.794 58.8 299.878 59.1C299.974 59.4 300.046 59.604 300.094 59.712C300.142 59.808 300.184 59.898 300.22 59.982H297.682ZM307.633 54.816C307.633 53.328 307.411 52.2 306.967 51.432C306.535 50.652 305.995 50.262 305.347 50.262C304.507 50.262 303.901 50.754 303.529 51.738C303.169 52.71 302.989 53.736 302.989 54.816C302.989 55.992 303.151 56.976 303.475 57.768C303.811 58.548 304.411 58.938 305.275 58.938C306.127 58.938 306.733 58.536 307.093 57.732C307.453 56.916 307.633 55.944 307.633 54.816ZM302.233 58.488C301.969 57.792 301.777 57.132 301.657 56.508C301.549 55.884 301.495 55.248 301.495 54.6C301.495 53.904 301.555 53.262 301.675 52.674C301.795 52.074 301.969 51.468 302.197 50.856C302.437 50.244 302.839 49.788 303.403 49.488C303.967 49.188 304.603 49.038 305.311 49.038C305.995 49.038 306.625 49.188 307.201 49.488C307.777 49.788 308.173 50.22 308.389 50.784C308.605 51.348 308.779 51.966 308.911 52.638C309.055 53.298 309.127 53.952 309.127 54.6C309.127 55.236 309.067 55.872 308.947 56.508C308.839 57.144 308.665 57.768 308.425 58.38C308.197 58.992 307.795 59.442 307.219 59.73C306.655 60.018 306.019 60.162 305.311 60.162C304.603 60.162 303.961 60.018 303.385 59.73C302.821 59.442 302.437 59.028 302.233 58.488ZM311.444 53.268V54.168C311.444 54.708 311.474 55.14 311.534 55.464C311.594 55.788 311.738 56.07 311.966 56.31C312.194 56.538 312.446 56.718 312.722 56.85C312.998 56.97 313.262 57.03 313.514 57.03C314.042 57.03 314.51 56.808 314.918 56.364C315.338 55.908 315.548 55.452 315.548 54.996V52.62C315.548 51.816 315.41 51.228 315.134 50.856C314.87 50.472 314.456 50.28 313.892 50.28C313.772 50.28 313.466 50.31 312.974 50.37C312.482 50.418 312.104 50.658 311.84 51.09C311.576 51.522 311.444 52.248 311.444 53.268ZM315.548 58.272V57.39C315.248 57.618 314.912 57.816 314.54 57.984C314.18 58.14 313.766 58.218 313.298 58.218C313.094 58.218 312.704 58.17 312.128 58.074C311.564 57.978 311.066 57.564 310.634 56.832C310.214 56.1 310.004 55.2 310.004 54.132C310.004 53.556 310.07 52.962 310.202 52.35C310.334 51.726 310.508 51.15 310.724 50.622C310.952 50.082 311.342 49.71 311.894 49.506C312.458 49.302 313.148 49.2 313.964 49.2H317.492C317.432 49.356 317.378 49.488 317.33 49.596C317.282 49.704 317.222 49.872 317.15 50.1C317.09 50.316 317.03 50.58 316.97 50.892C316.922 51.192 316.898 51.504 316.898 51.828V58.272C316.898 58.98 316.808 59.622 316.628 60.198C316.46 60.786 316.202 61.248 315.854 61.584C315.518 61.932 315.092 62.196 314.576 62.376C314.072 62.568 313.568 62.664 313.064 62.664C312.104 62.664 311.426 62.466 311.03 62.07C310.634 61.674 310.31 61.266 310.058 60.846C309.806 60.438 309.74 60.204 309.86 60.144C309.74 59.928 309.86 59.628 310.22 59.244C310.592 58.848 310.91 58.65 311.174 58.65C311.354 58.65 311.444 58.776 311.444 59.028C311.444 59.112 311.426 59.226 311.39 59.37C311.366 59.514 311.354 59.718 311.354 59.982C311.354 60.414 311.456 60.75 311.66 60.99C311.876 61.242 312.236 61.368 312.74 61.368C313.856 61.368 314.6 61.092 314.972 60.54C315.356 60 315.548 59.244 315.548 58.272ZM323.967 58.29C323.907 58.554 323.835 59.112 323.751 59.964C323.667 60.804 323.523 61.374 323.319 61.674C323.127 61.974 322.827 62.226 322.419 62.43C322.023 62.646 321.609 62.754 321.177 62.754C320.445 62.754 319.881 62.556 319.485 62.16C319.089 61.764 318.765 61.356 318.513 60.936C318.261 60.528 318.195 60.294 318.315 60.234C318.195 60.018 318.315 59.718 318.675 59.334C319.047 58.938 319.365 58.74 319.629 58.74C319.809 58.74 319.899 58.866 319.899 59.118C319.899 59.202 319.881 59.316 319.845 59.46C319.821 59.604 319.809 59.802 319.809 60.054C319.809 60.45 319.911 60.768 320.115 61.008C320.319 61.26 320.565 61.41 320.853 61.458C321.141 61.518 321.339 61.548 321.447 61.548C321.843 61.548 322.131 61.356 322.311 60.972C322.491 60.6 322.581 60.15 322.581 59.622C322.581 59.358 322.563 59.124 322.527 58.92C322.491 58.704 322.443 58.536 322.383 58.416C322.407 58.356 322.239 57.984 321.879 57.3C321.531 56.616 321.105 55.89 320.601 55.122C320.109 54.342 319.695 53.43 319.359 52.386C319.035 51.33 318.843 50.73 318.783 50.586L318.207 49.2H320.745C320.601 49.656 320.511 49.956 320.475 50.1C320.439 50.232 320.421 50.436 320.421 50.712C320.409 50.796 320.403 50.922 320.403 51.09C320.403 52.11 320.721 53.196 321.357 54.348C321.993 55.5 322.503 56.226 322.887 56.526C323.127 56.13 323.397 55.434 323.697 54.438C324.009 53.43 324.165 52.452 324.165 51.504C324.165 51.228 324.141 50.916 324.093 50.568C324.045 50.208 323.937 49.752 323.769 49.2H326.307L325.749 50.586C325.617 50.91 325.449 51.642 325.245 52.782C325.041 53.91 324.813 54.87 324.561 55.662C324.321 56.454 324.123 57.33 323.967 58.29ZM334.139 59.982C334.211 59.826 334.265 59.694 334.301 59.586C334.349 59.478 334.403 59.316 334.463 59.1C334.535 58.872 334.595 58.608 334.643 58.308C334.703 57.996 334.733 57.678 334.733 57.354V51.846C334.733 51.462 334.709 51.15 334.661 50.91C334.625 50.67 334.559 50.4 334.463 50.1C334.379 49.8 334.313 49.602 334.265 49.506C334.217 49.398 334.175 49.302 334.139 49.218H336.677C336.617 49.374 336.563 49.506 336.515 49.614C336.467 49.722 336.407 49.89 336.335 50.118C336.275 50.334 336.215 50.598 336.155 50.91C336.107 51.21 336.083 51.522 336.083 51.846V57.354C336.083 57.738 336.101 58.05 336.137 58.29C336.185 58.53 336.251 58.8 336.335 59.1C336.431 59.4 336.503 59.604 336.551 59.712C336.599 59.808 336.641 59.898 336.677 59.982H334.139ZM336.659 47.31C336.659 47.562 336.533 47.76 336.281 47.904C336.041 48.048 335.747 48.12 335.399 48.12C335.051 48.12 334.751 48.048 334.499 47.904C334.259 47.76 334.139 47.562 334.139 47.31C334.139 47.058 334.259 46.86 334.499 46.716C334.751 46.572 335.051 46.5 335.399 46.5C335.747 46.5 336.041 46.572 336.281 46.716C336.533 46.86 336.659 47.058 336.659 47.31ZM344.358 58.11C344.25 58.794 343.902 59.28 343.314 59.568C342.726 59.844 342.012 59.982 341.172 59.982H337.932C337.98 59.838 338.028 59.688 338.076 59.532C338.136 59.364 338.172 59.244 338.184 59.172C338.208 59.1 338.22 59.01 338.22 58.902C338.22 58.782 338.226 58.686 338.238 58.614C338.238 58.446 338.232 58.278 338.22 58.11C338.208 57.93 338.196 57.756 338.184 57.588C338.184 57.276 338.25 57.12 338.382 57.12C338.418 57.12 338.466 57.138 338.526 57.174C338.574 57.402 338.718 57.75 338.958 58.218C339.198 58.686 339.99 58.92 341.334 58.92C341.802 58.92 342.198 58.776 342.522 58.488C342.858 58.188 343.026 57.786 343.026 57.282C343.026 57.222 343.02 57.156 343.008 57.084C343.008 57 342.954 56.766 342.846 56.382C342.75 55.998 342.342 55.566 341.622 55.086C340.902 54.594 340.212 54.132 339.552 53.7C338.88 53.172 338.544 52.566 338.544 51.882C338.544 51.57 338.628 51.168 338.796 50.676C338.964 50.172 339.318 49.8 339.858 49.56C340.41 49.32 341.07 49.2 341.838 49.2H344.286L343.998 50.082C343.962 50.262 343.944 50.478 343.944 50.73C343.944 50.886 343.944 51.042 343.944 51.198C343.944 51.342 343.95 51.486 343.962 51.63C343.962 51.954 343.926 52.116 343.854 52.116C343.818 52.116 343.764 52.08 343.692 52.008C343.656 51.6 343.542 51.192 343.35 50.784C343.158 50.364 342.678 50.154 341.91 50.154C341.346 50.154 340.884 50.244 340.524 50.424C340.176 50.592 340.002 51.024 340.002 51.72C340.002 52.38 340.368 52.92 341.1 53.34C341.844 53.76 342.57 54.168 343.278 54.564C344.058 55.176 344.448 56.016 344.448 57.084C344.448 57.276 344.436 57.468 344.412 57.66C344.388 57.84 344.37 57.99 344.358 58.11ZM355.06 56.706C355.06 57.162 355.09 57.564 355.15 57.912C355.21 58.248 355.282 58.56 355.366 58.848C355.462 59.136 355.552 59.382 355.636 59.586C355.72 59.79 355.774 59.922 355.798 59.982H352.846C352.906 59.826 352.972 59.664 353.044 59.496C353.116 59.316 353.194 59.094 353.278 58.83C353.362 58.554 353.434 58.248 353.494 57.912C353.554 57.564 353.584 57.162 353.584 56.706V49.776C353.584 49.32 353.554 48.924 353.494 48.588C353.434 48.24 353.356 47.922 353.26 47.634C353.176 47.346 353.092 47.1 353.008 46.896C352.924 46.692 352.87 46.56 352.846 46.5H361.414C361.318 46.68 361.252 46.83 361.216 46.95C361.18 47.058 361.162 47.184 361.162 47.328C361.162 47.616 361.21 47.922 361.306 48.246C361.414 48.558 361.528 48.858 361.648 49.146C361.516 48.93 360.988 48.612 360.064 48.192C359.14 47.772 358.3 47.562 357.544 47.562C356.464 47.562 355.78 47.748 355.492 48.12C355.204 48.48 355.06 48.972 355.06 49.596V51.54C355.06 51.732 355.132 51.87 355.276 51.954C355.42 52.026 355.618 52.062 355.87 52.062C355.99 52.062 356.206 52.05 356.518 52.026C356.83 52.002 356.992 51.99 357.004 51.99C357.412 51.99 357.76 51.918 358.048 51.774C358.336 51.63 358.648 51.396 358.984 51.072C358.84 51.6 358.768 52.08 358.768 52.512C358.768 53.052 358.84 53.58 358.984 54.096C358.708 53.952 358.408 53.808 358.084 53.664C357.76 53.52 357.436 53.448 357.112 53.448H356.428C355.996 53.448 355.66 53.496 355.42 53.592C355.18 53.676 355.06 53.868 355.06 54.168V56.706ZM362.598 59.982C362.67 59.826 362.724 59.694 362.76 59.586C362.808 59.478 362.862 59.316 362.922 59.1C362.994 58.872 363.054 58.608 363.102 58.308C363.162 57.996 363.192 57.678 363.192 57.354V51.846C363.192 51.462 363.168 51.15 363.12 50.91C363.084 50.67 363.018 50.4 362.922 50.1C362.838 49.8 362.772 49.602 362.724 49.506C362.676 49.398 362.634 49.302 362.598 49.218H365.136C365.076 49.374 365.022 49.506 364.974 49.614C364.926 49.722 364.866 49.89 364.794 50.118C364.734 50.334 364.674 50.598 364.614 50.91C364.566 51.21 364.542 51.522 364.542 51.846V57.354C364.542 57.738 364.56 58.05 364.596 58.29C364.644 58.53 364.71 58.8 364.794 59.1C364.89 59.4 364.962 59.604 365.01 59.712C365.058 59.808 365.1 59.898 365.136 59.982H362.598ZM365.118 47.31C365.118 47.562 364.992 47.76 364.74 47.904C364.5 48.048 364.206 48.12 363.858 48.12C363.51 48.12 363.21 48.048 362.958 47.904C362.718 47.76 362.598 47.562 362.598 47.31C362.598 47.058 362.718 46.86 362.958 46.716C363.21 46.572 363.51 46.5 363.858 46.5C364.206 46.5 364.5 46.572 364.74 46.716C364.992 46.86 365.118 47.058 365.118 47.31ZM368.533 52.404V57.354C368.533 57.738 368.551 58.05 368.587 58.29C368.635 58.53 368.701 58.8 368.785 59.1C368.881 59.4 368.953 59.604 369.001 59.712C369.049 59.808 369.091 59.898 369.127 59.982H366.589C366.661 59.826 366.715 59.694 366.751 59.586C366.799 59.478 366.853 59.316 366.913 59.1C366.985 58.872 367.045 58.608 367.093 58.308C367.153 57.996 367.183 57.678 367.183 57.354V51.828C367.183 51.444 367.159 51.132 367.111 50.892C367.075 50.652 367.009 50.382 366.913 50.082C366.829 49.782 366.763 49.584 366.715 49.488C366.667 49.38 366.625 49.284 366.589 49.2L368.533 49.128V50.01C369.097 49.686 369.505 49.47 369.757 49.362C370.021 49.254 370.495 49.2 371.179 49.2H371.827H372.745L372.457 50.082C372.421 50.226 372.403 50.4 372.403 50.604C372.403 50.796 372.409 50.988 372.421 51.18C372.433 51.36 372.445 51.54 372.457 51.72C372.457 51.972 372.409 52.098 372.313 52.098C372.289 52.098 372.235 52.068 372.151 52.008C372.067 51.624 371.905 51.24 371.665 50.856C371.437 50.46 370.921 50.262 370.117 50.262C369.625 50.262 369.235 50.49 368.947 50.946C368.671 51.39 368.533 51.876 368.533 52.404ZM380.024 58.11C379.916 58.794 379.568 59.28 378.98 59.568C378.392 59.844 377.678 59.982 376.838 59.982H373.598C373.646 59.838 373.694 59.688 373.742 59.532C373.802 59.364 373.838 59.244 373.85 59.172C373.874 59.1 373.886 59.01 373.886 58.902C373.886 58.782 373.892 58.686 373.904 58.614C373.904 58.446 373.898 58.278 373.886 58.11C373.874 57.93 373.862 57.756 373.85 57.588C373.85 57.276 373.916 57.12 374.048 57.12C374.084 57.12 374.132 57.138 374.192 57.174C374.24 57.402 374.384 57.75 374.624 58.218C374.864 58.686 375.656 58.92 377 58.92C377.468 58.92 377.864 58.776 378.188 58.488C378.524 58.188 378.692 57.786 378.692 57.282C378.692 57.222 378.686 57.156 378.674 57.084C378.674 57 378.62 56.766 378.512 56.382C378.416 55.998 378.008 55.566 377.288 55.086C376.568 54.594 375.878 54.132 375.218 53.7C374.546 53.172 374.21 52.566 374.21 51.882C374.21 51.57 374.294 51.168 374.462 50.676C374.63 50.172 374.984 49.8 375.524 49.56C376.076 49.32 376.736 49.2 377.504 49.2H379.952L379.664 50.082C379.628 50.262 379.61 50.478 379.61 50.73C379.61 50.886 379.61 51.042 379.61 51.198C379.61 51.342 379.616 51.486 379.628 51.63C379.628 51.954 379.592 52.116 379.52 52.116C379.484 52.116 379.43 52.08 379.358 52.008C379.322 51.6 379.208 51.192 379.016 50.784C378.824 50.364 378.344 50.154 377.576 50.154C377.012 50.154 376.55 50.244 376.19 50.424C375.842 50.592 375.668 51.024 375.668 51.72C375.668 52.38 376.034 52.92 376.766 53.34C377.51 53.76 378.236 54.168 378.944 54.564C379.724 55.176 380.114 56.016 380.114 57.084C380.114 57.276 380.102 57.468 380.078 57.66C380.054 57.84 380.036 57.99 380.024 58.11ZM381.503 50.676C381.311 50.688 381.137 50.76 380.981 50.892C380.837 51.024 380.729 51.168 380.657 51.324C380.741 51.096 380.825 50.85 380.909 50.586C380.993 50.31 381.035 50.07 381.035 49.866C381.035 49.746 381.023 49.65 380.999 49.578C380.975 49.506 380.921 49.38 380.837 49.2H381.935C382.187 48.588 382.439 47.97 382.691 47.346C382.811 47.13 382.931 46.914 383.051 46.698C383.087 47.286 383.117 47.85 383.141 48.39C383.165 48.93 383.213 49.2 383.285 49.2H385.391C385.355 49.284 385.313 49.38 385.265 49.488C385.217 49.596 385.193 49.722 385.193 49.866C385.193 50.154 385.241 50.436 385.337 50.712C385.433 50.988 385.511 51.192 385.571 51.324C385.523 51.18 385.367 51.018 385.103 50.838C384.851 50.658 384.611 50.568 384.383 50.568C384.059 50.568 383.795 50.652 383.591 50.82C383.387 50.988 383.285 51.204 383.285 51.468V57.372C383.285 57.744 383.303 58.014 383.339 58.182C383.387 58.338 383.477 58.512 383.609 58.704C383.753 58.896 383.975 59.076 384.275 59.244C384.575 59.4 384.863 59.478 385.139 59.478C385.379 59.478 385.583 59.418 385.751 59.298C385.547 59.574 385.301 59.784 385.013 59.928C384.737 60.06 384.443 60.126 384.131 60.126C383.579 60.126 383.123 59.994 382.763 59.73C382.403 59.466 382.175 59.13 382.079 58.722C381.983 58.302 381.935 57.852 381.935 57.372V50.64C381.839 50.64 381.695 50.652 381.503 50.676ZM388.299 50.784L388.983 48.912C388.887 48.912 388.815 48.912 388.767 48.912C388.455 48.912 388.173 48.858 387.921 48.75C387.681 48.642 387.561 48.432 387.561 48.12C387.561 47.868 387.681 47.67 387.921 47.526C388.173 47.382 388.473 47.31 388.821 47.31C389.169 47.31 389.463 47.382 389.703 47.526C389.955 47.67 390.081 47.868 390.081 48.12C390.081 48.552 389.811 49.11 389.271 49.794C388.743 50.478 388.419 50.808 388.299 50.784ZM391.899 50.784L392.583 48.912C392.487 48.912 392.415 48.912 392.367 48.912C392.055 48.912 391.773 48.858 391.521 48.75C391.281 48.642 391.161 48.432 391.161 48.12C391.161 47.868 391.281 47.67 391.521 47.526C391.773 47.382 392.073 47.31 392.421 47.31C392.769 47.31 393.063 47.382 393.303 47.526C393.555 47.67 393.681 47.868 393.681 48.12C393.681 48.552 393.411 49.11 392.871 49.794C392.343 50.478 392.019 50.808 391.899 50.784Z" fill="#15803D"/>
<line x1="79.4648" y1="3.76437e-10" x2="79.4648" y2="66" stroke="#15803D" stroke-width="3"/>
<path d="M65.9648 28L63.4648 31L60.4648 35H45.9648V28H65.9648Z" fill="#15803D"/>
<path d="M65.4648 8L73.9648 18H43.9648V58H32.9648V8H65.4648Z" fill="#1E3A8A"/>
<path opacity="0.7" d="M28.9648 8V58H17.9648L18.3838 18H0V17.9209L4.46484 8H28.9648Z" fill="#15803D"/>
</svg>
